<?xml version="1.0" encoding="utf-8"?>
<!-- Generator: Adobe Illustrator 22.0.0, SVG Export Plug-In . SVG Version: 6.00 Build 0)  -->
<svg version="1.1" id="Layer_1" xmlns="http://www.w3.org/2000/svg" xmlns:xlink="http://www.w3.org/1999/xlink" x="0px" y="0px"
	 viewBox="0 0 30.6 7.8" style="enable-background:new 0 0 30.6 7.8;" xml:space="preserve">
<path d="M30.6,3.9c0-0.1,0-0.1,0-0.1c0,0,0,0,0,0c0,0,0,0-0.1-0.1c0,0,0-0.1,0-0.1l-2.4-2.5c-0.2-0.2-0.5-0.2-0.7,0s-0.2,0.5,0,0.7
	L29,3.4H17.8l1.6-2.6c0.1-0.2,0.1-0.5-0.2-0.7C19-0.1,18.7,0,18.6,0.2l-2,3.2h-2.8l1.6-2.6c0.1-0.2,0.1-0.5-0.2-0.7
	C15-0.1,14.7,0,14.6,0.2l-2,3.2H0.5C0.2,3.4,0,3.6,0,3.9s0.2,0.5,0.5,0.5H12L10.3,7c-0.1,0.2-0.1,0.5,0.2,0.7
	c0.1,0.1,0.2,0.1,0.3,0.1c0.2,0,0.3-0.1,0.4-0.2l2-3.2H16L14.3,7c-0.1,0.2-0.1,0.5,0.2,0.7c0.1,0.1,0.2,0.1,0.3,0.1
	c0.2,0,0.3-0.1,0.4-0.2l2-3.2H29L27.4,6c-0.2,0.2-0.2,0.5,0,0.7c0.1,0.1,0.2,0.1,0.4,0.1s0.3,0,0.4-0.1l2.4-2.4c0,0,0-0.1,0-0.1
	c0,0,0,0,0.1-0.1c0,0,0,0,0-0.1C30.6,4,30.6,4,30.6,3.9z"/>
</svg>
