<?xml version="1.0" encoding="utf-8"?>
<!-- Generator: Adobe Illustrator 22.0.0, SVG Export Plug-In . SVG Version: 6.00 Build 0)  -->
<svg version="1.1" id="Layer_1" xmlns="http://www.w3.org/2000/svg" xmlns:xlink="http://www.w3.org/1999/xlink" x="0px" y="0px"
	 viewBox="0 0 52 52" style="enable-background:new 0 0 52 52;" xml:space="preserve">
<style type="text/css">
	.st0{fill:#020202;}
</style>
<g>
	<path class="st0" d="M49.6,2.5c-3.3-3.3-8.7-3.3-12,0l-34,34c0,0,0,0,0,0.1c0,0,0,0-0.1,0.1c0,0.1-0.1,0.1-0.1,0.2c0,0,0,0,0,0.1
		c0,0,0,0,0,0L0,50.9c0,0.1,0,0.1,0,0.2c0,0,0,0,0,0c0,0.1,0,0.2,0.1,0.3c0,0,0,0,0,0.1c0,0.1,0.1,0.2,0.2,0.3
		c0.1,0.1,0.2,0.2,0.3,0.2S0.8,52,0.9,52c0.1,0,0.1,0,0.2,0l14-3.3c0,0,0,0,0.1,0c0,0,0.1,0,0.1,0c0.1,0,0.1-0.1,0.2-0.1
		c0,0,0,0,0.1-0.1c0,0,0,0,0,0l34-34C52.9,11.2,52.9,5.8,49.6,2.5z M48.2,3.8c2.3,2.3,2.5,6,0.6,8.6l-9.2-9.2
		C42.2,1.3,45.9,1.5,48.2,3.8z M43.6,17.8l-9.3-9.3l1.3-1.3l9.3,9.3L43.6,17.8z M4.7,47.4c-0.4-0.4-1-0.4-1.3,0l-0.7,0.7L5,38
		l4.2-0.5l-0.5,4.8c0,0,0,0.1,0,0.1c0,0,0,0.1,0,0.1c0,0,0,0.1,0,0.1c0,0.1,0,0.1,0,0.2c0,0.1,0.1,0.1,0.1,0.2c0,0,0.1,0.1,0.1,0.1
		c0,0,0.1,0.1,0.1,0.1c0,0,0.1,0.1,0.1,0.1c0.1,0,0.1,0,0.2,0.1c0,0,0.1,0,0.1,0c0,0,0.1,0,0.1,0h0h0h0h0c0,0,0.1,0,0.1,0l4.8-0.5
		L14.1,47L4,49.4l0.7-0.7C5,48.3,5,47.7,4.7,47.4z M16.5,42.2l21.1-21.1c0.4-0.4,0.4-1,0-1.3s-1-0.4-1.3,0L15.2,40.9l-4.5,0.5
		l0.5-4.5l21.1-21.1c0.4-0.4,0.4-1,0-1.3c-0.4-0.4-1-0.4-1.3,0L9.8,35.5l-3,0.3L32.9,9.8l9.3,9.3L16.2,45.2L16.5,42.2z M46.2,15.1
		l-9.3-9.3l1.3-1.3l9.3,9.3L46.2,15.1z"/>
	<g>
		<g>
			<path class="st0" d="M43,44H26.8c-0.5,0-1-0.4-1-1s0.4-1,1-1h15.3V28.3c0-0.5,0.4-1,1-1s1,0.4,1,1V43C44,43.6,43.6,44,43,44z"/>
		</g>
		<g>
			<path class="st0" d="M9,24.2c-0.5,0-1-0.4-1-1V9c0-0.5,0.4-1,1-1h16c0.5,0,1,0.4,1,1s-0.4,1-1,1h-15v13.3
				C9.9,23.7,9.5,24.2,9,24.2z"/>
		</g>
	</g>
	<g>
		<g>
			<path class="st0" d="M38.6,39.6h-4.9c-0.5,0-1-0.4-1-1c0-0.5,0.4-1,1-1h3.9v-4.5c0-0.5,0.4-1,1-1c0.5,0,1,0.4,1,1v5.5
				C39.6,39.2,39.2,39.6,38.6,39.6z"/>
		</g>
		<g>
			<path class="st0" d="M13.4,19.4c-0.5,0-1-0.4-1-1v-5.1c0-0.5,0.4-1,1-1H17c0.5,0,1,0.4,1,1s-0.4,1-1,1h-2.7v4.1
				C14.3,19,13.9,19.4,13.4,19.4z"/>
		</g>
	</g>
</g>
</svg>
