<?xml version="1.0" encoding="utf-8"?>
<!-- Generator: Adobe Illustrator 22.0.0, SVG Export Plug-In . SVG Version: 6.00 Build 0)  -->
<svg version="1.1" id="Layer_1" xmlns="http://www.w3.org/2000/svg" xmlns:xlink="http://www.w3.org/1999/xlink" x="0px" y="0px"
	 viewBox="0 0 55.7 55.7" style="enable-background:new 0 0 55.7 55.7;" xml:space="preserve">
<style type="text/css">
	.st0{fill:#F2C975;}
</style>
<g>
	<g>
		<path class="st0" d="M51.6,11.8v25.4c0,2.1-0.8,4-2.3,5.5l-6.6,6.6c-1.5,1.5-3.4,2.3-5.5,2.3h-5.9L24,44.2
			c-1.5-1.5-2.3-3.4-2.3-5.5V21.4c1.1-0.7,1.8-1.9,1.8-3.2c0-2.1-1.7-3.8-3.8-3.8s-3.8,1.7-3.8,3.8c0,1.4,0.7,2.6,1.8,3.2v17.4
			c0,3.2,1.2,6.1,3.5,8.4l4.5,4.5H11.8c-4.3,0-7.7-3.5-7.7-7.7V18.4c0-2.1,0.8-4,2.3-5.5L13,6.3C14.5,4.8,16.4,4,18.5,4h5.9l7.4,7.4
			c1.5,1.5,2.3,3.4,2.3,5.5v17.4c-1.1,0.7-1.8,1.9-1.8,3.2c0,2.1,1.7,3.8,3.8,3.8s3.8-1.7,3.8-3.8c0-1.4-0.7-2.6-1.8-3.2V17
			c0-3.2-1.2-6.1-3.5-8.4l-4.5-4.5h13.8C48.1,4.1,51.6,7.6,51.6,11.8z"/>
	</g>
</g>
</svg>
