<svg id="Layer_1" data-name="Layer 1" xmlns="http://www.w3.org/2000/svg" viewBox="0 0 15.92 15.84"><defs><style>.cls-1{fill:#6bb983;}</style></defs><title>portfolio_project</title><path class="cls-1" d="M12.13,4.17a4.17,4.17,0,0,0-8.34,0C3.79,7.47,8,12.35,8,12.35s4.17-4.9,4.17-8.18ZM5.9,3.92A2.06,2.06,0,1,1,8,6,2.06,2.06,0,0,1,5.9,3.92Zm0,0"/><path class="cls-1" d="M9,3.92a1,1,0,1,1-1-1,1,1,0,0,1,1,1Zm0,0"/><path class="cls-1" d="M10.32,10.9c-.35.49-.66.92-.93,1.26a11.81,11.81,0,0,1,5,1.15c-.76.5-3,1.2-6.44,1.2s-5.68-.7-6.44-1.2a11.75,11.75,0,0,1,5-1.15c-.26-.34-.58-.77-.92-1.26C2.35,11.22,0,12.18,0,13.31c0,1.4,3.56,2.53,8,2.53s8-1.13,8-2.53c0-1.13-2.36-2.09-5.6-2.41Zm0,0"/></svg>