<svg id="Layer_1" data-name="Layer 1" xmlns="http://www.w3.org/2000/svg" viewBox="0 0 15.39 15.93"><defs><style>.cls-1{fill:#6bb983;}</style></defs><title>portfolio_project</title><path class="cls-1" d="M11,6.57S10.49,6,10.16,6H9.88V4.69a.67.67,0,0,0-1.34,0V6H6.85V4.69a.67.67,0,1,0-1.33,0V6H5.24c-.34,0-.83.57-.83.57L.77,10a.86.86,0,0,0-.26.53v4.2a1.23,1.23,0,0,0,1.23,1.23H13.66a1.23,1.23,0,0,0,1.22-1.23V10.5a.85.85,0,0,0-.25-.53Zm2.23,7.69h-11V10.93L5.54,7.79l.06-.06.06-.06H9.73l0,.07.07.06,3.37,3.14Zm0,0"/><path class="cls-1" d="M10.4,0H5A5,5,0,0,0,0,5v.67A.34.34,0,0,0,.34,6H3.41a.83.83,0,0,0,.83-.83V3.45a.83.83,0,0,1,.83-.83h5.25a.84.84,0,0,1,.84.83V5.17A.83.83,0,0,0,12,6h3.07a.34.34,0,0,0,.33-.34V5a5,5,0,0,0-5-5Zm0,0"/><path class="cls-1" d="M7.7,8.51a2.54,2.54,0,1,0,2.54,2.54A2.54,2.54,0,0,0,7.7,8.51Zm0,3.16a.62.62,0,1,1,.62-.62.62.62,0,0,1-.62.62Zm0,0"/></svg>