<svg id="Layer_1" data-name="Layer 1" xmlns="http://www.w3.org/2000/svg" viewBox="0 0 27.81 27.81"><defs><style>.cls-1{fill:#6bb983;}</style></defs><title>portfolio_project</title><path class="cls-1" d="M13.9,16.69a2.79,2.79,0,0,0,0-5.57,2.76,2.76,0,0,0-2.25,1.16,2.71,2.71,0,0,0-.53,1.62,2.79,2.79,0,0,0,2.78,2.79Zm0,0"/><path class="cls-1" d="M20,10.5V7.82H17.3v2.68Zm0,0"/><path class="cls-1" d="M13.9,0A13.91,13.91,0,1,0,27.81,13.9,13.92,13.92,0,0,0,13.9,0Zm7.91,12.28v6.48a3.06,3.06,0,0,1-3.06,3H9.05a3.06,3.06,0,0,1-3.05-3V9.05A3.06,3.06,0,0,1,9.05,6h9.7a3.06,3.06,0,0,1,3.06,3.05Zm0,0"/><path class="cls-1" d="M18.23,13.9a4.33,4.33,0,1,1-8.65,0,4.18,4.18,0,0,1,.32-1.62H7.54v6.48a1.51,1.51,0,0,0,1.51,1.51h9.7a1.52,1.52,0,0,0,1.52-1.51V12.28H17.91a4.37,4.37,0,0,1,.32,1.62Zm0,0"/></svg>