<svg id="Layer_1" data-name="Layer 1" xmlns="http://www.w3.org/2000/svg" viewBox="0 0 27.81 27.81"><defs><style>.cls-1{fill:#6bb983;}</style></defs><title>portfolio_project</title><path class="cls-1" d="M11.7,11.58c0-1.06-.72-1.06-.72-1.06H8v2.29h2.79c.48,0,.91-.16.91-1.23Zm0,0"/><path class="cls-1" d="M18.6,12.81a1.83,1.83,0,0,0-1.8,1.57h3.36a1.51,1.51,0,0,0-1.56-1.57Zm0,0"/><path class="cls-1" d="M11,14.38H8v2.74h2.83a1.16,1.16,0,0,0,1.23-1.33c0-1.42-1.08-1.41-1.08-1.41Zm0,0"/><path class="cls-1" d="M13.9,0A13.91,13.91,0,1,0,27.81,13.9,13.92,13.92,0,0,0,13.9,0Zm2.46,9.31h4.22v1.26H16.36Zm-2.13,6.6c0,3.13-3.25,3-3.25,3H5.65V8.7H11a2.61,2.61,0,0,1,2.89,2.73,1.77,1.77,0,0,1-1.56,1.94c2.06,0,1.92,2.54,1.92,2.54Zm7.9-.16H16.82a1.66,1.66,0,0,0,1.8,1.78c1.7,0,1.64-1.1,1.64-1.1h1.81c0,2.92-3.51,2.72-3.51,2.72a3.63,3.63,0,0,1-3.93-3.91s0-3.94,3.93-3.94c4.15,0,3.57,4.45,3.57,4.45Zm0,0"/></svg>