<svg id="Layer_1" data-name="Layer 1" xmlns="http://www.w3.org/2000/svg" viewBox="0 0 150.41 47.54"><defs><style>.cls-1{fill:#f9f6f2;}</style></defs><title>portfolio_project</title><path class="cls-1" d="M47.54,7.75V33.2a7.72,7.72,0,0,1-2.26,5.48l-6.61,6.6a7.69,7.69,0,0,1-5.47,2.26H27.33l-7.4-7.4a7.71,7.71,0,0,1-2.27-5.48V17.29a3.82,3.82,0,1,0-5.86-3.24,3.79,3.79,0,0,0,1.78,3.23V34.66A11.71,11.71,0,0,0,17.05,43l4.52,4.52H7.75A7.75,7.75,0,0,1,0,39.8V14.35A7.71,7.71,0,0,1,2.27,8.87l6.6-6.6A7.71,7.71,0,0,1,14.35,0h5.86l7.41,7.41a7.7,7.7,0,0,1,2.26,5.48V30.26a3.83,3.83,0,1,0,4.08,0V12.89A11.79,11.79,0,0,0,30.5,4.52L26,0H39.8A7.75,7.75,0,0,1,47.54,7.75Z"/><path class="cls-1" d="M53.24.56H57.8a1.06,1.06,0,0,1,1.08.71l4.21,10.32c.13.28.38.21.38-.1v-10A.83.83,0,0,1,64.4.56h3.47a.82.82,0,0,1,.92.93V21.31a.83.83,0,0,1-.92.93H63.31a1,1,0,0,1-1.08-.71L58,11.21c-.12-.27-.37-.21-.37.1v10a.83.83,0,0,1-.93.93H53.24a.85.85,0,0,1-.93-.93V1.49A.83.83,0,0,1,53.24.56Z"/><path class="cls-1" d="M87.23,8.05V21.19c0,.68-.31,1-.93,1H82.83a.83.83,0,0,1-.93-.93V18.62a.82.82,0,0,0-.93-.93H78.31a.83.83,0,0,0-.93.93v2.69a.82.82,0,0,1-.93.93H73c-.59,0-.93-.37-.93-1V8.05c0-3.9.62-8,7.59-8S87.23,4.15,87.23,8.05ZM81.9,11.4V8.05c0-1.48-.22-2.23-2.26-2.23s-2.26.75-2.26,2.23v3.38a.85.85,0,0,0,.93.93H81A.86.86,0,0,0,81.9,11.4Z"/><path class="cls-1" d="M91.41.56h6.41a.94.94,0,0,1,1,.83l2.2,9c.07.31.31.31.38,0l2.2-9a.94.94,0,0,1,1-.83H111a.82.82,0,0,1,.93.93V21.31a.83.83,0,0,1-.93.93h-3.47a.85.85,0,0,1-.93-.93V9.11a.17.17,0,0,0-.34,0l-3,12.36a.94.94,0,0,1-1,.8h-2a.94.94,0,0,1-1-.8l-3-12.36a.17.17,0,0,0-.34,0v12.2a.83.83,0,0,1-.93.93H91.41a.83.83,0,0,1-.93-.93V1.49A.82.82,0,0,1,91.41.56Z"/><path class="cls-1" d="M116.26.56h4.55a1.07,1.07,0,0,1,1.09.71l4.21,10.32c.12.28.37.21.37-.1v-10a.83.83,0,0,1,.93-.93h3.47a.82.82,0,0,1,.93.93V21.31a.83.83,0,0,1-.93.93h-4.55a1.07,1.07,0,0,1-1.09-.71L121,11.21c-.13-.27-.37-.21-.37.1v10a.83.83,0,0,1-.93.93h-3.47a.85.85,0,0,1-.93-.93V1.49A.83.83,0,0,1,116.26.56Z"/><path class="cls-1" d="M67.9,32.74v6.78C67.9,44.6,66,47,60.15,47H53.24a.85.85,0,0,1-.93-.93V26.26a.86.86,0,0,1,.93-1h6.91C66,25.3,67.9,27.65,67.9,32.74Zm-5.43,6.81V32.74c0-1.93-.74-2.11-2.23-2.11H58.57a.83.83,0,0,0-.93.93v9.17a.85.85,0,0,0,.93.93h1.67C61.73,41.66,62.47,41.41,62.47,39.55Z"/><path class="cls-1" d="M71.92,25.3h13a.82.82,0,0,1,.92.93V29.7a.83.83,0,0,1-.92.93h-7.5a.83.83,0,0,0-.93.93v1a.85.85,0,0,0,.93.93h4.8a.82.82,0,0,1,.93.93v3.47a.83.83,0,0,1-.93.93h-4.8a.83.83,0,0,0-.93.93v1a.85.85,0,0,0,.93.93h7.5a.82.82,0,0,1,.92.93v3.47a.82.82,0,0,1-.92.93h-13a.85.85,0,0,1-.93-.93V26.23A.83.83,0,0,1,71.92,25.3Z"/><path class="cls-1" d="M98.73,32.21A2.52,2.52,0,0,0,96,30.13c-1.21,0-2,.72-1.83,1.43.43,2.41,10.22,2.35,10.22,9.48,0,.93-1.05,6.41-8.39,6.41-6.51,0-7.91-4.27-8.06-6.69a.91.91,0,0,1,.81-1l3.5-.78c.62-.12,1,.16,1,.81A2.54,2.54,0,0,0,96,42.12c1.51,0,2.63-.9,2.44-1.73-.59-2.64-9.91-2-9.91-9.17,0-.93.53-6.42,7.47-6.42,6.38,0,7.86,4.16,8,6.39a.92.92,0,0,1-.81,1L99.75,33C99.13,33.11,98.82,32.83,98.73,32.21Z"/><path class="cls-1" d="M107.9,25.3h3.41a.82.82,0,0,1,.93.93V46.06a.83.83,0,0,1-.93.93H107.9a.85.85,0,0,1-.93-.93V26.23A.83.83,0,0,1,107.9,25.3Z"/><path class="cls-1" d="M123.11,24.74c6.51,0,7.59,4.28,7.75,6.69a.92.92,0,0,1-.81,1l-3.5.77c-.62.12-1-.15-1-.8-.13-1.49-.65-2.36-2.42-2.36-2.29,0-2.45,1.46-2.45,3.84v4.46c0,2.39.16,3.85,2.45,3.85s2.45-1.46,2.45-3h-1.8a.85.85,0,0,1-.93-.93V35.83a.83.83,0,0,1,.93-.93H130a.82.82,0,0,1,.93.93V40c0,2-.44,7.52-7.78,7.52s-7.77-5.48-7.77-7.52V32.27C115.34,30.23,115.77,24.74,123.11,24.74Z"/><path class="cls-1" d="M134.85,25.3h4.56a1.07,1.07,0,0,1,1.08.71l4.22,10.32c.12.28.37.22.37-.09v-10a.83.83,0,0,1,.93-.93h3.47a.82.82,0,0,1,.93.93V46.06a.83.83,0,0,1-.93.93h-4.56a1.07,1.07,0,0,1-1.08-.72L139.62,36c-.12-.28-.37-.22-.37.09v10a.83.83,0,0,1-.93.93h-3.47a.85.85,0,0,1-.93-.93V26.23A.83.83,0,0,1,134.85,25.3Z"/></svg>