<svg id="Layer_1" data-name="Layer 1" xmlns="http://www.w3.org/2000/svg" viewBox="0 0 69 69"><defs><style>.cls-1{fill:#101e23;}.cls-2{fill:#6bb983;}</style></defs><title>portfolio_project</title><rect class="cls-1" x="10.1" y="10.1" width="48.79" height="48.79" transform="translate(-14.29 34.5) rotate(-45)"/><path class="cls-2" d="M39.55,25.72h-8a3.73,3.73,0,0,0-2.64,1.09l-2.08,2.08a3.73,3.73,0,0,0-1.09,2.64v8a3.73,3.73,0,0,0,3.73,3.73h8a3.73,3.73,0,0,0,2.64-1.09l2.08-2.08a3.73,3.73,0,0,0,1.09-2.64v-8A3.73,3.73,0,0,0,39.55,25.72ZM42,37.47a2.43,2.43,0,0,1-.72,1.73L39.2,41.28a2.45,2.45,0,0,1-1.73.72H35.62l-2.33-2.34a2.43,2.43,0,0,1-.72-1.73V32.45a1.21,1.21,0,1,0-1.28,0v5.48a3.71,3.71,0,0,0,1.09,2.64L33.81,42H29.45A2.45,2.45,0,0,1,27,39.55v-8a2.45,2.45,0,0,1,.72-1.73l2.08-2.08A2.45,2.45,0,0,1,31.53,27h1.85l2.33,2.34a2.43,2.43,0,0,1,.72,1.73v5.48a1.21,1.21,0,1,0,1.28,0V31.07a3.71,3.71,0,0,0-1.09-2.64L35.19,27h4.36A2.45,2.45,0,0,1,42,29.45Z"/></svg>