<svg id="Layer_1" data-name="Layer 1" xmlns="http://www.w3.org/2000/svg" viewBox="0 0 27.81 27.81"><defs><style>.cls-1{fill:#6bb983;}</style></defs><title>portfolio_project</title><path class="cls-1" d="M13.49,11.45a44,44,0,0,0-2.77-4.29,7.47,7.47,0,0,0-4.12,5.2,26.78,26.78,0,0,0,6.89-.91Zm0,0"/><path class="cls-1" d="M12.12,6.66h0Zm0,0"/><path class="cls-1" d="M18.83,8.3A7.48,7.48,0,0,0,13.9,6.44a7.38,7.38,0,0,0-1.76.22A34.47,34.47,0,0,1,14.93,11a8.13,8.13,0,0,0,3.9-2.71Zm0,0"/><path class="cls-1" d="M15.17,15.12a10.11,10.11,0,0,0-5.85,4.66,7.44,7.44,0,0,0,7.49,1,30.71,30.71,0,0,0-1.59-5.66Zm0,0"/><path class="cls-1" d="M14.42,14l.29-.09c-.19-.42-.39-.85-.6-1.27a27.62,27.62,0,0,1-7.66,1.07c0,.08,0,.15,0,.23a7.47,7.47,0,0,0,1.91,5h0A11.79,11.79,0,0,1,14.42,14Zm0,0"/><path class="cls-1" d="M13.9,0A13.91,13.91,0,1,0,27.81,13.9,13.92,13.92,0,0,0,13.9,0Zm8.56,15.66A9.18,9.18,0,0,1,22,17.3a8.6,8.6,0,0,1-.81,1.49,8.57,8.57,0,0,1-2.35,2.35A8.6,8.6,0,0,1,17.3,22a9.18,9.18,0,0,1-1.64.51,8.69,8.69,0,0,1-3.52,0A9.44,9.44,0,0,1,10.5,22,8.51,8.51,0,0,1,9,21.14a8.79,8.79,0,0,1-2.36-2.35,9.28,9.28,0,0,1-.8-1.49,7.8,7.8,0,0,1-.51-1.64,8.69,8.69,0,0,1,0-3.52,8,8,0,0,1,.51-1.64A9.18,9.18,0,0,1,6.66,9,9,9,0,0,1,9,6.66a9.63,9.63,0,0,1,1.48-.8,8,8,0,0,1,1.64-.51,8.69,8.69,0,0,1,3.52,0,7.8,7.8,0,0,1,1.64.51,8.55,8.55,0,0,1,1.49.8,9.39,9.39,0,0,1,1.29,1.07A8.77,8.77,0,0,1,21.14,9,8.89,8.89,0,0,1,22,10.5a8.75,8.75,0,0,1,.69,3.4,9.38,9.38,0,0,1-.18,1.76Zm0,0"/><path class="cls-1" d="M16.62,14.76a32.49,32.49,0,0,1,1.45,5.33,7.5,7.5,0,0,0,3.2-5,10.89,10.89,0,0,0-4.65-.33Zm0,0"/><path class="cls-1" d="M15.51,12.12c.17.35.34.71.49,1.08.06.13.11.26.16.38a17.41,17.41,0,0,1,5.2.25,7.39,7.39,0,0,0-1.7-4.66,9.64,9.64,0,0,1-4.15,2.95Zm0,0"/></svg>