<svg id="Layer_1" data-name="Layer 1" xmlns="http://www.w3.org/2000/svg" viewBox="0 0 90.09 139.39"><defs><style>.cls-1{fill:#1e1e1e;}</style></defs><title>logo</title><path class="cls-1" d="M10.79,55.12v7.71a1.5,1.5,0,0,1-1.51,1.5H1.52A1.52,1.52,0,0,0,0,65.84v7.71a1.52,1.52,0,0,0,1.52,1.51H41.66a1.52,1.52,0,0,0,1.52-1.51V65.84a1.52,1.52,0,0,0-1.52-1.51H23.1a1.51,1.51,0,0,1-1.51-1.5V55.12a1.52,1.52,0,0,1,1.51-1.51H74a1.51,1.51,0,0,0,1.52-1.5V44.4A1.51,1.51,0,0,0,74,42.89H1.52A1.51,1.51,0,0,0,0,44.4v7.71a1.51,1.51,0,0,0,1.52,1.5H9.28A1.51,1.51,0,0,1,10.79,55.12Z"/><path class="cls-1" d="M64.76,76.56v7.71a1.52,1.52,0,0,1-1.51,1.51H1.52A1.51,1.51,0,0,0,0,87.28V95a1.51,1.51,0,0,0,1.52,1.5H74A1.51,1.51,0,0,0,75.56,95V65.84A1.52,1.52,0,0,0,74,64.33H55.49A1.52,1.52,0,0,0,54,65.84v7.71a1.52,1.52,0,0,0,1.52,1.51h7.76A1.51,1.51,0,0,1,64.76,76.56Z"/><path class="cls-1" d="M0,128.67v9.21a1.51,1.51,0,0,0,1.52,1.51H74a1.51,1.51,0,0,0,1.52-1.51v-7.71a1.51,1.51,0,0,0-1.52-1.5H12.31a1.52,1.52,0,0,1-1.52-1.51v-7.71a1.51,1.51,0,0,1,1.52-1.5H74a1.52,1.52,0,0,0,1.52-1.51v-7.71A1.52,1.52,0,0,0,74,107.22H1.52A1.52,1.52,0,0,0,0,108.73v19.94Z"/><path class="cls-1" d="M0,10.72V30.66a1.52,1.52,0,0,0,1.52,1.51H9.28a1.51,1.51,0,0,0,1.51-1.51V12.23a1.52,1.52,0,0,1,1.52-1.51H63.25a1.52,1.52,0,0,1,1.51,1.51v7.71a1.51,1.51,0,0,1-1.51,1.5H23.1A1.52,1.52,0,0,0,21.59,23v7.71a1.52,1.52,0,0,0,1.51,1.51H74a1.52,1.52,0,0,0,1.52-1.51V1.51A1.51,1.51,0,0,0,74,0H1.52A1.51,1.51,0,0,0,0,1.51Z"/><path class="cls-1" d="M83.7,134.36a.71.71,0,0,1,.72-.71H87.7a.73.73,0,0,1,.72.71v2.25h1.67v1.64H83.7Zm3.37,1a.1.1,0,0,0-.09-.09H85.16a.1.1,0,0,0-.09.09v1.24h2Z"/><path class="cls-1" d="M90.09,120.43v1.63H87.55v1.56h2.54v1.63H83.7v-1.63h2.44v-1.56H83.7v-1.63Z"/><path class="cls-1" d="M83.7,107.81a.7.7,0,0,1,.74-.74h4.9a.71.71,0,0,1,.75.74v3.26a.71.71,0,0,1-.75.75h-4.9a.71.71,0,0,1-.74-.75Zm1.48.89a.11.11,0,0,0-.1.11v1.29a.11.11,0,0,0,.1.08h3.44a.09.09,0,0,0,.08-.08v-1.29c0-.06,0-.11-.08-.11Z"/><path class="cls-1" d="M83.7,94.53h1.38V96h5v1.64h-5v1.44H83.7Z"/><path class="cls-1" d="M83.7,82.51a.7.7,0,0,1,.74-.74h4.9a.71.71,0,0,1,.75.74v3.26a.72.72,0,0,1-.75.75h-4.9a.71.71,0,0,1-.74-.75Zm1.48.89a.11.11,0,0,0-.1.11v1.28a.11.11,0,0,0,.1.09h3.44a.09.09,0,0,0,.08-.09V83.51c0-.06,0-.11-.08-.11Z"/><path class="cls-1" d="M86.17,70.93V68.05h1.35v.53h1.84a.72.72,0,0,1,.73.72v3.18a.73.73,0,0,1-.73.73H84.42a.73.73,0,0,1-.72-.73V68.55h1.37v2.94a.1.1,0,0,0,.1.09H88.6a.08.08,0,0,0,.09-.09V70.17c0-.06,0-.1-.09-.1H87.52v.86Z"/><path class="cls-1" d="M83.7,55.69a.72.72,0,0,1,.72-.72h2.92a.73.73,0,0,1,.72.72v0l2-.78v1.6l-2,.79V58h2v1.63H83.7Zm1.46.91a.1.1,0,0,0-.09.08V58h1.7V56.68a.09.09,0,0,0-.08-.08Z"/><path class="cls-1" d="M90.09,41.77v1.64H88.5v1.43h1.59v1.64H84.44a.7.7,0,0,1-.74-.74V42.51a.7.7,0,0,1,.74-.74Zm-3,1.64H85.19a.2.2,0,0,0-.19.22v1a.19.19,0,0,0,.19.19h1.92Z"/><path class="cls-1" d="M83.7,29.27a.71.71,0,0,1,.72-.71H87.7a.73.73,0,0,1,.72.71v2.25h1.67v1.64H83.7Zm3.37,1A.09.09,0,0,0,87,30.2H85.16a.09.09,0,0,0-.09.08v1.24h2Z"/><path class="cls-1" d="M90.09,15.34V17H87.55v1.55h2.54v1.63H83.7V18.53h2.44V17H83.7V15.34Z"/><path class="cls-1" d="M90.09,5.37H88.21v.85a.75.75,0,0,1-.76.72H83.7V5.3h2.94a.12.12,0,0,0,.1-.1V3.89c0-.06,0-.07-.1-.07H83.7V2.19h3.75a.74.74,0,0,1,.76.71v.84h1.88Z"/></svg>