<svg width="100" height="100" viewBox="0 0 100 100" fill="none" xmlns="http://www.w3.org/2000/svg">
<rect x="0.75" y="0.75" width="98.5" height="98.5" rx="49.25" stroke="#F68B1F" stroke-width="1.5"/>
<path d="M69.4844 36.9003C70.5897 36.9003 71.4739 38.0465 71.4739 39.4793V60.2835C71.4739 61.7162 70.5897 62.8625 69.4844 62.8625H67.2187H64.4556V65.7281V69.7972L60.1452 64.0087L59.3163 62.9198H57.9348H30.7461C29.6408 62.9198 28.7567 61.7736 28.7567 60.3408V39.4793C28.7567 38.0465 29.6408 36.9003 30.7461 36.9003H69.4844ZM69.4844 34.0347H30.8013C28.1488 34.0347 26.0488 36.4991 26.0488 39.4793V60.2835C26.0488 63.321 28.204 65.7281 30.8013 65.7281H57.99L67.2187 78.1647V65.7281H69.4844C72.137 65.7281 74.2369 63.2637 74.2369 60.2835V39.4793C74.2369 36.4418 72.0817 34.0347 69.4844 34.0347Z" fill="#F68B1F"/>
<path d="M38.4824 48.0767C37.2666 48.0767 36.2719 49.1082 36.2719 50.3691C36.2719 51.6299 37.2666 52.6615 38.4824 52.6615C39.6981 52.6615 40.6929 51.6299 40.6929 50.3691C40.6929 49.1082 39.6981 48.0767 38.4824 48.0767Z" fill="#F68B1F"/>
<path d="M50.142 48.076C48.9263 48.076 47.9316 49.1077 47.9316 50.3685C47.9316 51.6294 48.9263 52.661 50.142 52.661C51.3578 52.661 52.3525 51.6294 52.3525 50.3685C52.3525 49.1077 51.3578 48.076 50.142 48.076Z" fill="#F68B1F"/>
<path d="M61.7469 48.076C60.5312 48.076 59.5365 49.1077 59.5365 50.3685C59.5365 51.6294 60.5312 52.661 61.7469 52.661C62.9626 52.661 63.9573 51.6294 63.9573 50.3685C63.9573 49.1077 63.0179 48.076 61.7469 48.076Z" fill="#F68B1F"/>
</svg>
