<svg width="100" height="100" viewBox="0 0 100 100" fill="none" xmlns="http://www.w3.org/2000/svg">
<rect x="0.75" y="0.75" width="98.5" height="98.5" rx="49.25" stroke="#F68B1F" stroke-width="1.5"/>
<path d="M69.8776 44.335H64.119V34.4023H22.8999V66.715H29.5071C29.9314 65.5834 30.78 64.6404 31.8711 64.2004C32.356 64.0118 32.841 63.886 33.3865 63.886C33.9321 63.886 34.417 64.0118 34.9019 64.2004C35.993 64.6404 36.8416 65.5834 37.266 66.715H61.9974C62.3611 65.6463 63.1492 64.7662 64.119 64.2632V64.2004H64.3009C64.7858 64.0118 65.2707 63.886 65.8163 63.886C66.3618 63.886 66.8467 64.0118 67.3317 64.2004C68.4228 64.6404 69.2714 65.5834 69.6957 66.715H78.0001V55.525L69.8776 44.335ZM61.6944 62.8802C61.27 63.2574 60.8457 63.6974 60.5426 64.1375H38.7208C37.5084 62.4401 35.5687 61.3086 33.3865 61.3086C31.2043 61.3086 29.2646 62.4401 28.0523 64.1375H25.3246V36.8541H61.6944V62.8802ZM75.6361 64.2004H71.2111C69.9988 62.503 68.0591 61.3714 65.8769 61.3714C65.2707 61.3714 64.6646 61.4343 64.119 61.6229V46.8496H68.6652L75.6361 56.4051V64.2004Z" fill="#F68B1F"/>
<path d="M64.1191 64.2002V64.2616C64.1797 64.2002 64.2403 64.2002 64.301 64.2002H64.1191Z" fill="#F68B1F"/>
<path d="M64.1191 64.2002V64.2616C64.1797 64.2002 64.2403 64.2002 64.301 64.2002H64.1191ZM64.1191 64.2002V64.2616C64.1797 64.2002 64.2403 64.2002 64.301 64.2002H64.1191ZM64.1191 64.2002V64.2616C64.1797 64.2002 64.2403 64.2002 64.301 64.2002H64.1191ZM64.1191 64.2002V64.2616C64.1797 64.2002 64.2403 64.2002 64.301 64.2002H64.1191Z" fill="#F68B1F"/>
<path d="M58.0573 40.6257V55.5876H28.9614V40.6257H58.0573ZM59.2696 39.3684H27.7491V56.8449H59.2696V39.3684Z" fill="#F68B1F"/>
<path d="M33.3863 71.3671C35.1606 71.3671 36.599 69.8754 36.599 68.0352C36.599 66.195 35.1606 64.7032 33.3863 64.7032C31.612 64.7032 30.1737 66.195 30.1737 68.0352C30.1737 69.8754 31.612 71.3671 33.3863 71.3671Z" fill="#F68B1F"/>
<path d="M65.877 71.3671C67.6513 71.3671 69.0897 69.8754 69.0897 68.0352C69.0897 66.195 67.6513 64.7032 65.877 64.7032C64.1027 64.7032 62.6643 66.195 62.6643 68.0352C62.6643 69.8754 64.1027 71.3671 65.877 71.3671Z" fill="#F68B1F"/>
</svg>
