<svg width="100" height="100" viewBox="0 0 100 100" fill="none" xmlns="http://www.w3.org/2000/svg">
<rect x="0.75" y="0.75" width="98.5" height="98.5" rx="49.25" stroke="#F68B1F" stroke-width="1.5"/>
<path d="M69.3321 34.0347C56.4939 34.0347 43.6558 34.0347 30.8176 34.0347C28.645 34.0347 26.9167 35.5197 26.423 37.7217C26.423 37.8242 26.3736 37.8754 26.3242 37.9778V66.9623C26.423 67.2184 26.4724 67.4744 26.5711 67.7305C27.1636 69.6252 28.8425 70.9055 30.7682 70.9055C43.6064 70.9055 56.4446 70.9055 69.3321 70.9055C71.7516 70.9055 73.7267 68.8571 73.7761 66.2966C73.7761 57.0789 73.7761 47.8612 73.7761 38.5923C73.7267 36.083 71.7516 34.0347 69.3321 34.0347ZM70.7641 65.9893C70.7641 67.2696 70.2209 67.8329 68.9865 67.8329H31.0151C29.83 67.8329 29.2375 67.2696 29.2375 66.0406V52.5213H70.7147V65.9893H70.7641ZM70.7641 43.2524H29.3362C29.3362 43.0987 29.2869 42.9963 29.2869 42.8939C29.2869 41.5112 29.2869 40.1798 29.2869 38.7971C29.2869 37.773 29.8794 37.1584 30.867 37.1584H69.184C70.1222 37.1584 70.7641 37.8242 70.7641 38.7971C70.7641 40.231 70.7641 41.7161 70.7641 43.2524Z" fill="#F68B1F"/>
<path d="M35.2123 58.6152H32.2991V64.7091H35.2123V58.6152Z" fill="#F68B1F"/>
<path d="M41.1375 58.6665H38.2242V64.7604H41.1375V58.6665Z" fill="#F68B1F"/>
<path d="M47.063 58.6152H44.1497V64.7091H47.063V58.6152Z" fill="#F68B1F"/>
</svg>
