<svg width="23" height="22" viewBox="0 0 23 22" fill="none" xmlns="http://www.w3.org/2000/svg">
<path d="M21.9687 4.65314C21.7781 4.55784 21.5557 4.49432 21.3334 4.49432C17.077 4.49432 12.8523 4.49432 8.5959 4.49432C8.46884 4.49432 8.34178 4.49432 8.21473 4.52608C7.83356 4.62137 7.64297 5.00254 7.77003 5.38371C7.89708 5.73312 8.11943 5.86018 8.65943 5.86018C12.5347 5.86018 16.4099 5.86018 20.2851 5.86018H20.6346L20.5393 6.14606C20.4757 6.36841 20.3804 6.55899 20.3487 6.78134C20.3169 6.84487 20.3169 6.9084 20.2851 7.00369C20.2534 7.09898 20.2534 7.16251 20.2216 7.19428L19.7134 8.75073C19.5546 9.25895 19.3957 9.70365 19.2687 10.1484C19.2687 10.1801 19.2369 10.2119 19.2369 10.2436C19.2369 10.2754 19.2052 10.3072 19.2052 10.3389L18.3158 13.1342C18.2522 13.3248 18.1569 13.3883 17.9664 13.3883C15.1393 13.3883 12.3441 13.3883 9.54883 13.3883C9.29471 13.3883 9.19942 13.3248 9.13589 13.1024C7.96061 9.70365 6.78534 6.30488 5.61006 2.87434C5.51476 2.5567 5.32418 2.36611 5.00654 2.23905C4.40302 2.0167 3.79949 1.76259 3.19597 1.54024C2.71951 1.34965 2.27481 1.19083 1.83011 1.03201C1.54423 0.936719 1.29012 1.06378 1.1313 1.28613C0.972476 1.50848 0.940712 1.79435 1.1313 2.0167C1.25835 2.17552 1.41718 2.27082 1.576 2.36611C2.40187 2.71552 3.2595 3.03316 4.08537 3.38257C4.21243 3.44609 4.33949 3.57315 4.40302 3.70021C5.51476 6.9084 6.62651 10.1166 7.73826 13.293C7.80179 13.4836 7.89708 13.6742 7.64297 13.8012C7.57944 13.833 7.54768 13.9283 7.51591 14.0236C7.16651 14.9448 6.84886 15.8659 6.53122 16.8188C6.3724 17.2318 6.62651 17.5812 7.07121 17.613C7.19827 17.613 7.35709 17.613 7.51591 17.613C6.84886 18.82 6.91239 19.8047 7.7065 20.4717C8.46884 21.1388 9.51706 21.1706 10.2794 20.5988C11.2006 19.8682 11.3276 18.9788 10.6606 17.613H14.9805C14.1546 18.7882 14.5358 19.8365 15.1076 20.3764C15.8064 21.0753 16.8864 21.1705 17.6805 20.6306C18.0934 20.3447 18.3475 19.9953 18.4746 19.5188C18.6969 18.82 18.5063 18.1847 18.0616 17.613C18.3158 17.5812 18.5699 17.613 18.7922 17.5494C19.0781 17.4859 19.2369 17.2635 19.2369 17.0094C19.2369 16.7236 19.0463 16.5012 18.7605 16.4694C18.6334 16.4377 18.5063 16.4377 18.3793 16.4377C14.9805 16.4377 11.5817 16.4377 8.18296 16.4377H7.77003C7.99238 15.8342 8.18296 15.2624 8.40531 14.7224C8.56413 14.7224 8.65943 14.7542 8.78648 14.7542C11.9947 14.7542 15.2346 14.7542 18.4428 14.7542C19.0463 14.7542 19.2052 14.6271 19.3957 14.0554C19.8087 12.753 20.2216 11.4507 20.6663 10.1166C21.1428 8.5919 21.651 7.06722 22.1275 5.54254C22.2863 5.1296 22.2228 4.81196 21.9687 4.65314ZM16.5687 18.0259C17.077 18.0259 17.4581 18.4388 17.4581 18.9153C17.4581 19.4235 17.0452 19.8047 16.537 19.8047C16.0287 19.8047 15.6476 19.3918 15.6476 18.9153C15.6476 18.4388 16.0605 18.0259 16.5687 18.0259ZM9.07236 18.0259C9.58059 18.0259 9.96176 18.4388 9.96176 18.9153C9.96176 19.4235 9.54883 19.8047 9.0406 19.8047C8.56413 19.8047 8.1512 19.3918 8.1512 18.9153C8.1512 18.4388 8.56413 18.0259 9.07236 18.0259Z" fill="#474747" stroke="#474747" stroke-width="0.25"/>
</svg>
