<svg width="765" height="56" viewBox="0 0 765 56" fill="none" xmlns="http://www.w3.org/2000/svg">
<circle cx="49" cy="39" r="17" fill="#F68B1F"/>
<circle cx="683" cy="39" r="17" fill="#F68B1F"/>
<rect x="682" y="44" width="622" height="9.99995" transform="rotate(-180 682 44)" fill="#F68B1F"/>
<circle cx="366" cy="39" r="17" fill="#F68B1F"/>
<path d="M32.6886 14.14C32.0166 14.14 31.4192 14.028 30.8966 13.804C30.3832 13.58 29.8839 13.23 29.3986 12.754C29.2866 12.6607 29.2306 12.5487 29.2306 12.418C29.2306 12.306 29.2726 12.2033 29.3566 12.11C29.4499 12.0167 29.5526 11.97 29.6646 11.97C29.7766 11.97 29.8792 12.0167 29.9726 12.11C30.7006 12.9127 31.6106 13.314 32.7026 13.314C33.3746 13.314 33.9299 13.1553 34.3686 12.838C34.8166 12.5207 35.0406 12.1053 35.0406 11.592C35.0406 11.1907 34.9286 10.8593 34.7046 10.598C34.4899 10.3273 34.2052 10.108 33.8506 9.94C33.4959 9.772 33.0432 9.59933 32.4926 9.422C31.8952 9.24467 31.3912 9.04867 30.9806 8.834C30.5792 8.61933 30.2526 8.33467 30.0006 7.98C29.7486 7.616 29.6226 7.15867 29.6226 6.608C29.6226 6.11333 29.7532 5.67467 30.0146 5.292C30.2852 4.90933 30.6586 4.61067 31.1346 4.396C31.6199 4.172 32.1752 4.06 32.8006 4.06C33.3699 4.06 33.9019 4.158 34.3966 4.354C34.9006 4.54067 35.3019 4.81133 35.6006 5.166C35.7406 5.32467 35.8106 5.46 35.8106 5.572C35.8106 5.67467 35.7639 5.77267 35.6706 5.866C35.5772 5.95 35.4746 5.992 35.3626 5.992C35.2692 5.992 35.1899 5.95933 35.1246 5.894C34.8726 5.59533 34.5366 5.35267 34.1166 5.166C33.6966 4.97933 33.2579 4.886 32.8006 4.886C32.1192 4.886 31.5639 5.04 31.1346 5.348C30.7052 5.64667 30.4906 6.05733 30.4906 6.58C30.4906 7.12133 30.6959 7.53667 31.1066 7.826C31.5172 8.11533 32.1052 8.38133 32.8706 8.624C33.5332 8.82 34.0746 9.02067 34.4946 9.226C34.9146 9.43133 35.2552 9.72533 35.5166 10.108C35.7872 10.4813 35.9226 10.976 35.9226 11.592C35.9226 12.068 35.7826 12.502 35.5026 12.894C35.2319 13.2767 34.8492 13.58 34.3546 13.804C33.8692 14.028 33.3139 14.14 32.6886 14.14ZM38.5059 13.58C38.5059 13.7013 38.4639 13.804 38.3799 13.888C38.3052 13.9627 38.2072 14 38.0859 14C37.9646 14 37.8619 13.9627 37.7779 13.888C37.7032 13.804 37.6659 13.7013 37.6659 13.58V7.14C37.6659 7.01867 37.7032 6.92067 37.7779 6.846C37.8619 6.762 37.9646 6.72 38.0859 6.72C38.2072 6.72 38.3052 6.762 38.3799 6.846C38.4639 6.92067 38.5059 7.01867 38.5059 7.14V13.58ZM38.0859 5.782C37.8992 5.782 37.7546 5.74 37.6519 5.656C37.5492 5.56267 37.4979 5.432 37.4979 5.264V5.124C37.4979 4.956 37.5492 4.83 37.6519 4.746C37.7639 4.65267 37.9132 4.606 38.0999 4.606C38.4732 4.606 38.6599 4.77867 38.6599 5.124V5.264C38.6599 5.432 38.6086 5.56267 38.5059 5.656C38.4126 5.74 38.2726 5.782 38.0859 5.782ZM46.736 6.846C46.8574 6.846 46.9554 6.888 47.03 6.972C47.114 7.04667 47.156 7.14933 47.156 7.28V13.342C47.156 14.07 47.002 14.6907 46.694 15.204C46.3954 15.7267 45.98 16.1233 45.448 16.394C44.9254 16.6647 44.3234 16.8 43.642 16.8C43.3154 16.8 42.97 16.758 42.606 16.674C42.2514 16.59 41.9434 16.4827 41.682 16.352C41.43 16.2213 41.2854 16.086 41.248 15.946C41.1827 15.8807 41.15 15.806 41.15 15.722C41.15 15.6287 41.192 15.554 41.276 15.498C41.3134 15.47 41.36 15.456 41.416 15.456C41.472 15.456 41.5794 15.4887 41.738 15.554L42.032 15.68C42.6107 15.904 43.152 16.016 43.656 16.016C44.4867 16.016 45.1354 15.778 45.602 15.302C46.078 14.8353 46.316 14.2007 46.316 13.398V12.53C46.0827 13.034 45.714 13.4307 45.21 13.72C44.706 14 44.1787 14.14 43.628 14.14C42.984 14.14 42.4007 13.9813 41.878 13.664C41.3647 13.3373 40.9587 12.8893 40.66 12.32C40.3614 11.7507 40.212 11.1113 40.212 10.402C40.212 9.702 40.3614 9.06733 40.66 8.498C40.9587 7.92867 41.3647 7.48533 41.878 7.168C42.4007 6.84133 42.9794 6.678 43.614 6.678C44.202 6.678 44.7387 6.82733 45.224 7.126C45.7187 7.41533 46.0827 7.76533 46.316 8.176V7.28C46.316 7.15867 46.3534 7.056 46.428 6.972C46.512 6.888 46.6147 6.846 46.736 6.846ZM43.698 13.356C44.2114 13.356 44.6687 13.2347 45.07 12.992C45.4807 12.74 45.798 12.39 46.022 11.942C46.2554 11.4847 46.372 10.9713 46.372 10.402C46.372 9.83267 46.2554 9.324 46.022 8.876C45.798 8.428 45.4807 8.08267 45.07 7.84C44.6687 7.588 44.2114 7.462 43.698 7.462C43.194 7.462 42.7367 7.59267 42.326 7.854C41.9247 8.106 41.6074 8.456 41.374 8.904C41.15 9.352 41.038 9.85133 41.038 10.402C41.038 10.962 41.15 11.466 41.374 11.914C41.6074 12.362 41.9247 12.7167 42.326 12.978C42.7367 13.23 43.194 13.356 43.698 13.356ZM52.7437 6.678C53.6117 6.678 54.2463 6.93467 54.6477 7.448C55.0583 7.952 55.2637 8.624 55.2637 9.464V13.58C55.2637 13.7013 55.2217 13.804 55.1377 13.888C55.0537 13.9627 54.9557 14 54.8437 14C54.7223 14 54.6197 13.9627 54.5357 13.888C54.461 13.804 54.4237 13.7013 54.4237 13.58V9.506C54.4237 8.89933 54.2697 8.40933 53.9617 8.036C53.663 7.65333 53.1963 7.462 52.5617 7.462C52.1603 7.462 51.7777 7.55533 51.4137 7.742C51.059 7.92867 50.7697 8.18067 50.5457 8.498C50.3217 8.806 50.2097 9.142 50.2097 9.506V13.58C50.2097 13.7013 50.1677 13.804 50.0837 13.888C50.009 13.9627 49.911 14 49.7897 14C49.6683 14 49.5657 13.9627 49.4817 13.888C49.407 13.804 49.3697 13.7013 49.3697 13.58V7.308C49.3697 7.18667 49.407 7.08867 49.4817 7.014C49.5657 6.93 49.6683 6.888 49.7897 6.888C49.911 6.888 50.009 6.93 50.0837 7.014C50.1677 7.08867 50.2097 7.18667 50.2097 7.308V8.078C50.4617 7.67667 50.821 7.34533 51.2877 7.084C51.7637 6.81333 52.249 6.678 52.7437 6.678ZM62.1035 13.58C62.1035 13.7013 62.0615 13.804 61.9775 13.888C61.9029 13.9627 61.8049 14 61.6835 14C61.5622 14 61.4595 13.9627 61.3755 13.888C61.3009 13.804 61.2635 13.7013 61.2635 13.58V7.14C61.2635 7.01867 61.3009 6.92067 61.3755 6.846C61.4595 6.762 61.5622 6.72 61.6835 6.72C61.8049 6.72 61.9029 6.762 61.9775 6.846C62.0615 6.92067 62.1035 7.01867 62.1035 7.14V13.58ZM61.6835 5.782C61.4969 5.782 61.3522 5.74 61.2495 5.656C61.1469 5.56267 61.0955 5.432 61.0955 5.264V5.124C61.0955 4.956 61.1469 4.83 61.2495 4.746C61.3615 4.65267 61.5109 4.606 61.6975 4.606C62.0709 4.606 62.2575 4.77867 62.2575 5.124V5.264C62.2575 5.432 62.2062 5.56267 62.1035 5.656C62.0102 5.74 61.8702 5.782 61.6835 5.782ZM67.6597 6.678C68.5277 6.678 69.1624 6.93467 69.5637 7.448C69.9744 7.952 70.1797 8.624 70.1797 9.464V13.58C70.1797 13.7013 70.1377 13.804 70.0537 13.888C69.9697 13.9627 69.8717 14 69.7597 14C69.6384 14 69.5357 13.9627 69.4517 13.888C69.377 13.804 69.3397 13.7013 69.3397 13.58V9.506C69.3397 8.89933 69.1857 8.40933 68.8777 8.036C68.579 7.65333 68.1124 7.462 67.4777 7.462C67.0764 7.462 66.6937 7.55533 66.3297 7.742C65.975 7.92867 65.6857 8.18067 65.4617 8.498C65.2377 8.806 65.1257 9.142 65.1257 9.506V13.58C65.1257 13.7013 65.0837 13.804 64.9997 13.888C64.925 13.9627 64.827 14 64.7057 14C64.5844 14 64.4817 13.9627 64.3977 13.888C64.323 13.804 64.2857 13.7013 64.2857 13.58V7.308C64.2857 7.18667 64.323 7.08867 64.3977 7.014C64.4817 6.93 64.5844 6.888 64.7057 6.888C64.827 6.888 64.925 6.93 64.9997 7.014C65.0837 7.08867 65.1257 7.18667 65.1257 7.308V8.078C65.3777 7.67667 65.737 7.34533 66.2037 7.084C66.6797 6.81333 67.165 6.678 67.6597 6.678Z" fill="#666666"/>
<path d="M331.402 13.566C331.393 13.6873 331.346 13.79 331.262 13.874C331.178 13.958 331.075 14 330.954 14C330.823 14 330.716 13.9627 330.632 13.888C330.557 13.804 330.52 13.6967 330.52 13.566V4.634C330.52 4.50333 330.562 4.40067 330.646 4.326C330.73 4.242 330.837 4.2 330.968 4.2C331.089 4.2 331.192 4.242 331.276 4.326C331.36 4.41 331.402 4.51267 331.402 4.634V13.566ZM337.184 6.678C338.052 6.678 338.687 6.93467 339.088 7.448C339.499 7.952 339.704 8.624 339.704 9.464V13.58C339.704 13.7013 339.662 13.804 339.578 13.888C339.494 13.9627 339.396 14 339.284 14C339.163 14 339.06 13.9627 338.976 13.888C338.901 13.804 338.864 13.7013 338.864 13.58V9.506C338.864 8.89933 338.71 8.40933 338.402 8.036C338.103 7.65333 337.637 7.462 337.002 7.462C336.601 7.462 336.218 7.55533 335.854 7.742C335.499 7.92867 335.21 8.18067 334.986 8.498C334.762 8.806 334.65 9.142 334.65 9.506V13.58C334.65 13.7013 334.608 13.804 334.524 13.888C334.449 13.9627 334.351 14 334.23 14C334.109 14 334.006 13.9627 333.922 13.888C333.847 13.804 333.81 13.7013 333.81 13.58V7.308C333.81 7.18667 333.847 7.08867 333.922 7.014C334.006 6.93 334.109 6.888 334.23 6.888C334.351 6.888 334.449 6.93 334.524 7.014C334.608 7.08867 334.65 7.18667 334.65 7.308V8.078C334.902 7.67667 335.261 7.34533 335.728 7.084C336.204 6.81333 336.689 6.678 337.184 6.678ZM344.396 4.438C344.097 4.438 343.864 4.536 343.696 4.732C343.537 4.928 343.458 5.19867 343.458 5.544V6.986H345.026C345.129 6.986 345.217 7.02333 345.292 7.098C345.376 7.17267 345.418 7.266 345.418 7.378C345.418 7.49 345.376 7.58333 345.292 7.658C345.217 7.73267 345.129 7.77 345.026 7.77H343.458V13.58C343.458 13.7013 343.416 13.804 343.332 13.888C343.257 13.9627 343.159 14 343.038 14C342.917 14 342.814 13.9627 342.73 13.888C342.655 13.804 342.618 13.7013 342.618 13.58V7.77H341.596C341.484 7.77 341.391 7.73267 341.316 7.658C341.241 7.574 341.204 7.48067 341.204 7.378C341.204 7.25667 341.241 7.16333 341.316 7.098C341.391 7.02333 341.484 6.986 341.596 6.986H342.618V5.544C342.618 4.956 342.786 4.50333 343.122 4.186C343.467 3.85933 343.925 3.696 344.494 3.696C344.755 3.696 344.998 3.738 345.222 3.822C345.446 3.89667 345.558 4.02267 345.558 4.2C345.558 4.312 345.521 4.40533 345.446 4.48C345.371 4.55467 345.287 4.592 345.194 4.592C345.11 4.592 345.007 4.56867 344.886 4.522C344.681 4.466 344.517 4.438 344.396 4.438ZM353.447 10.416C353.447 11.116 353.293 11.7507 352.985 12.32C352.677 12.8893 352.253 13.3373 351.711 13.664C351.17 13.9813 350.568 14.14 349.905 14.14C349.243 14.14 348.641 13.9813 348.099 13.664C347.558 13.3373 347.133 12.8893 346.825 12.32C346.517 11.7507 346.363 11.116 346.363 10.416C346.363 9.716 346.517 9.08133 346.825 8.512C347.133 7.94267 347.558 7.49467 348.099 7.168C348.641 6.84133 349.243 6.678 349.905 6.678C350.568 6.678 351.17 6.84133 351.711 7.168C352.253 7.49467 352.677 7.94267 352.985 8.512C353.293 9.08133 353.447 9.716 353.447 10.416ZM352.607 10.416C352.607 9.856 352.491 9.352 352.257 8.904C352.024 8.456 351.697 8.106 351.277 7.854C350.867 7.59267 350.409 7.462 349.905 7.462C349.401 7.462 348.944 7.59267 348.533 7.854C348.123 8.106 347.796 8.456 347.553 8.904C347.32 9.352 347.203 9.856 347.203 10.416C347.203 10.9667 347.32 11.466 347.553 11.914C347.796 12.362 348.123 12.7167 348.533 12.978C348.944 13.23 349.401 13.356 349.905 13.356C350.409 13.356 350.867 13.23 351.277 12.978C351.697 12.726 352.024 12.376 352.257 11.928C352.491 11.48 352.607 10.976 352.607 10.416ZM358.512 6.678C358.698 6.678 358.866 6.71533 359.016 6.79C359.165 6.86467 359.24 6.97667 359.24 7.126C359.24 7.25667 359.202 7.364 359.128 7.448C359.053 7.52267 358.964 7.56 358.862 7.56C358.815 7.56 358.722 7.53667 358.582 7.49C358.451 7.44333 358.325 7.42 358.204 7.42C357.858 7.42 357.513 7.55533 357.168 7.826C356.832 8.08733 356.552 8.428 356.328 8.848C356.113 9.268 356.006 9.69267 356.006 10.122V13.58C356.006 13.7013 355.964 13.804 355.88 13.888C355.805 13.9627 355.707 14 355.586 14C355.464 14 355.362 13.9627 355.278 13.888C355.203 13.804 355.166 13.7013 355.166 13.58V7.308C355.166 7.18667 355.203 7.08867 355.278 7.014C355.362 6.93 355.464 6.888 355.586 6.888C355.707 6.888 355.805 6.93 355.88 7.014C355.964 7.08867 356.006 7.18667 356.006 7.308V8.54C356.22 8.008 356.542 7.56933 356.972 7.224C357.41 6.86933 357.924 6.68733 358.512 6.678ZM368.672 6.79C369.512 6.79 370.128 7.05133 370.52 7.574C370.922 8.08733 371.122 8.76867 371.122 9.618V13.58C371.122 13.7013 371.08 13.804 370.996 13.888C370.922 13.9627 370.824 14 370.702 14C370.581 14 370.478 13.9627 370.394 13.888C370.32 13.804 370.282 13.7013 370.282 13.58V9.66C370.282 9.044 370.133 8.54467 369.834 8.162C369.545 7.77 369.092 7.574 368.476 7.574C368.084 7.574 367.711 7.66733 367.356 7.854C367.011 8.04067 366.731 8.29733 366.516 8.624C366.302 8.94133 366.194 9.28667 366.194 9.66V13.58C366.194 13.7013 366.152 13.804 366.068 13.888C365.994 13.9627 365.896 14 365.774 14C365.653 14 365.55 13.9627 365.466 13.888C365.392 13.804 365.354 13.7013 365.354 13.58V9.618C365.354 9.01133 365.214 8.52133 364.934 8.148C364.654 7.76533 364.216 7.574 363.618 7.574C363.236 7.574 362.872 7.66733 362.526 7.854C362.19 8.04067 361.915 8.29267 361.7 8.61C361.495 8.918 361.392 9.254 361.392 9.618V13.58C361.392 13.7013 361.35 13.804 361.266 13.888C361.192 13.9627 361.094 14 360.972 14C360.851 14 360.748 13.9627 360.664 13.888C360.59 13.804 360.552 13.7013 360.552 13.58V7.308C360.552 7.18667 360.59 7.08867 360.664 7.014C360.748 6.93 360.851 6.888 360.972 6.888C361.094 6.888 361.192 6.93 361.266 7.014C361.35 7.08867 361.392 7.18667 361.392 7.308V8.12C361.644 7.73733 361.985 7.42 362.414 7.168C362.844 6.916 363.296 6.79 363.772 6.79C364.314 6.79 364.78 6.92067 365.172 7.182C365.564 7.44333 365.844 7.826 366.012 8.33C366.208 7.91933 366.568 7.56 367.09 7.252C367.613 6.944 368.14 6.79 368.672 6.79ZM379.132 6.846C379.253 6.846 379.351 6.888 379.426 6.972C379.51 7.056 379.552 7.15867 379.552 7.28V13.58C379.552 13.7013 379.51 13.804 379.426 13.888C379.351 13.9627 379.253 14 379.132 14C379.01 14 378.908 13.9627 378.824 13.888C378.749 13.804 378.712 13.7013 378.712 13.58V12.642C378.478 13.062 378.128 13.4167 377.662 13.706C377.195 13.9953 376.686 14.14 376.136 14.14C375.51 14.14 374.946 13.9767 374.442 13.65C373.947 13.3233 373.555 12.8753 373.266 12.306C372.986 11.7367 372.846 11.0973 372.846 10.388C372.846 9.67867 372.99 9.044 373.28 8.484C373.569 7.91467 373.961 7.47133 374.456 7.154C374.96 6.83667 375.515 6.678 376.122 6.678C376.682 6.678 377.195 6.81333 377.662 7.084C378.128 7.35467 378.478 7.70933 378.712 8.148V7.28C378.712 7.15867 378.749 7.056 378.824 6.972C378.908 6.888 379.01 6.846 379.132 6.846ZM376.22 13.356C376.705 13.356 377.139 13.23 377.522 12.978C377.914 12.7167 378.217 12.362 378.432 11.914C378.656 11.4567 378.768 10.948 378.768 10.388C378.768 9.84667 378.656 9.352 378.432 8.904C378.217 8.456 377.914 8.106 377.522 7.854C377.139 7.59267 376.705 7.462 376.22 7.462C375.734 7.462 375.296 7.588 374.904 7.84C374.521 8.092 374.218 8.442 373.994 8.89C373.779 9.32867 373.672 9.828 373.672 10.388C373.672 10.948 373.779 11.4567 373.994 11.914C374.208 12.362 374.507 12.7167 374.89 12.978C375.282 13.23 375.725 13.356 376.22 13.356ZM383.144 7.658V12.348C383.144 12.7027 383.209 12.9453 383.34 13.076C383.47 13.1973 383.643 13.258 383.858 13.258C383.914 13.258 383.984 13.2487 384.068 13.23C384.152 13.202 384.217 13.188 384.264 13.188C384.348 13.188 384.418 13.2253 384.474 13.3C384.539 13.3653 384.572 13.4447 384.572 13.538C384.572 13.6687 384.497 13.7807 384.348 13.874C384.198 13.958 384.021 14 383.816 14C383.564 14 383.34 13.9767 383.144 13.93C382.948 13.8833 382.756 13.7433 382.57 13.51C382.392 13.2767 382.304 12.9033 382.304 12.39V7.658H381.282C381.17 7.658 381.072 7.62067 380.988 7.546C380.913 7.47133 380.876 7.378 380.876 7.266C380.876 7.154 380.913 7.06067 380.988 6.986C381.072 6.91133 381.17 6.874 381.282 6.874H382.304V5.32C382.304 5.19867 382.341 5.10067 382.416 5.026C382.5 4.942 382.602 4.9 382.724 4.9C382.845 4.9 382.943 4.942 383.018 5.026C383.102 5.10067 383.144 5.19867 383.144 5.32V6.874H384.544C384.646 6.874 384.735 6.916 384.81 7C384.894 7.084 384.936 7.17733 384.936 7.28C384.936 7.392 384.898 7.48533 384.824 7.56C384.749 7.62533 384.656 7.658 384.544 7.658H383.144ZM387.3 13.58C387.3 13.7013 387.258 13.804 387.174 13.888C387.099 13.9627 387.001 14 386.88 14C386.759 14 386.656 13.9627 386.572 13.888C386.497 13.804 386.46 13.7013 386.46 13.58V7.14C386.46 7.01867 386.497 6.92067 386.572 6.846C386.656 6.762 386.759 6.72 386.88 6.72C387.001 6.72 387.099 6.762 387.174 6.846C387.258 6.92067 387.3 7.01867 387.3 7.14V13.58ZM386.88 5.782C386.693 5.782 386.549 5.74 386.446 5.656C386.343 5.56267 386.292 5.432 386.292 5.264V5.124C386.292 4.956 386.343 4.83 386.446 4.746C386.558 4.65267 386.707 4.606 386.894 4.606C387.267 4.606 387.454 4.77867 387.454 5.124V5.264C387.454 5.432 387.403 5.56267 387.3 5.656C387.207 5.74 387.067 5.782 386.88 5.782ZM396.09 10.416C396.09 11.116 395.936 11.7507 395.628 12.32C395.32 12.8893 394.895 13.3373 394.354 13.664C393.813 13.9813 393.211 14.14 392.548 14.14C391.885 14.14 391.283 13.9813 390.742 13.664C390.201 13.3373 389.776 12.8893 389.468 12.32C389.16 11.7507 389.006 11.116 389.006 10.416C389.006 9.716 389.16 9.08133 389.468 8.512C389.776 7.94267 390.201 7.49467 390.742 7.168C391.283 6.84133 391.885 6.678 392.548 6.678C393.211 6.678 393.813 6.84133 394.354 7.168C394.895 7.49467 395.32 7.94267 395.628 8.512C395.936 9.08133 396.09 9.716 396.09 10.416ZM395.25 10.416C395.25 9.856 395.133 9.352 394.9 8.904C394.667 8.456 394.34 8.106 393.92 7.854C393.509 7.59267 393.052 7.462 392.548 7.462C392.044 7.462 391.587 7.59267 391.176 7.854C390.765 8.106 390.439 8.456 390.196 8.904C389.963 9.352 389.846 9.856 389.846 10.416C389.846 10.9667 389.963 11.466 390.196 11.914C390.439 12.362 390.765 12.7167 391.176 12.978C391.587 13.23 392.044 13.356 392.548 13.356C393.052 13.356 393.509 13.23 393.92 12.978C394.34 12.726 394.667 12.376 394.9 11.928C395.133 11.48 395.25 10.976 395.25 10.416ZM401.182 6.678C402.05 6.678 402.685 6.93467 403.086 7.448C403.497 7.952 403.702 8.624 403.702 9.464V13.58C403.702 13.7013 403.66 13.804 403.576 13.888C403.492 13.9627 403.394 14 403.282 14C403.161 14 403.058 13.9627 402.974 13.888C402.899 13.804 402.862 13.7013 402.862 13.58V9.506C402.862 8.89933 402.708 8.40933 402.4 8.036C402.101 7.65333 401.635 7.462 401 7.462C400.599 7.462 400.216 7.55533 399.852 7.742C399.497 7.92867 399.208 8.18067 398.984 8.498C398.76 8.806 398.648 9.142 398.648 9.506V13.58C398.648 13.7013 398.606 13.804 398.522 13.888C398.447 13.9627 398.349 14 398.228 14C398.107 14 398.004 13.9627 397.92 13.888C397.845 13.804 397.808 13.7013 397.808 13.58V7.308C397.808 7.18667 397.845 7.08867 397.92 7.014C398.004 6.93 398.107 6.888 398.228 6.888C398.349 6.888 398.447 6.93 398.522 7.014C398.606 7.08867 398.648 7.18667 398.648 7.308V8.078C398.9 7.67667 399.259 7.34533 399.726 7.084C400.202 6.81333 400.687 6.678 401.182 6.678Z" fill="#666666"/>
<path d="M628.655 4.2C628.767 4.2 628.86 4.242 628.935 4.326C629.019 4.40067 629.061 4.49867 629.061 4.62V13.58C629.061 13.7013 629.019 13.804 628.935 13.888C628.851 13.9627 628.748 14 628.627 14C628.496 14 628.389 13.9627 628.305 13.888C628.221 13.804 628.179 13.7013 628.179 13.58V5.88L624.889 10.864C624.795 10.9853 624.688 11.0413 624.567 11.032H624.539C624.427 11.032 624.324 10.976 624.231 10.864L620.941 5.852V13.58C620.941 13.7013 620.899 13.804 620.815 13.888C620.74 13.9627 620.642 14 620.521 14C620.399 14 620.301 13.9627 620.227 13.888C620.152 13.804 620.115 13.7013 620.115 13.58V4.62C620.115 4.508 620.152 4.41 620.227 4.326C620.311 4.242 620.413 4.2 620.535 4.2C620.6 4.2 620.67 4.21867 620.745 4.256C620.819 4.284 620.875 4.326 620.913 4.382L624.581 9.884L628.277 4.382C628.379 4.242 628.505 4.18133 628.655 4.2ZM637.533 10.01C637.533 10.122 637.491 10.22 637.407 10.304C637.323 10.3787 637.225 10.416 637.113 10.416H631.821C631.821 10.976 631.933 11.48 632.157 11.928C632.39 12.3667 632.717 12.7167 633.137 12.978C633.566 13.23 634.07 13.356 634.649 13.356C635.097 13.356 635.498 13.2627 635.853 13.076C636.208 12.8893 636.492 12.6513 636.707 12.362C636.81 12.278 636.908 12.236 637.001 12.236C637.094 12.236 637.178 12.2733 637.253 12.348C637.328 12.4227 637.365 12.5067 637.365 12.6C637.365 12.7027 637.318 12.8007 637.225 12.894C636.926 13.258 636.548 13.5567 636.091 13.79C635.643 14.0233 635.167 14.14 634.663 14.14C633.944 14.14 633.31 13.986 632.759 13.678C632.208 13.37 631.779 12.9407 631.471 12.39C631.163 11.83 631.009 11.186 631.009 10.458C631.009 9.69267 631.158 9.02533 631.457 8.456C631.765 7.87733 632.171 7.43867 632.675 7.14C633.179 6.832 633.716 6.678 634.285 6.678C634.845 6.678 635.368 6.80867 635.853 7.07C636.348 7.33133 636.749 7.714 637.057 8.218C637.365 8.722 637.524 9.31933 637.533 10.01ZM634.285 7.49C633.744 7.49 633.24 7.67667 632.773 8.05C632.316 8.42333 632.022 8.96 631.891 9.66H636.665V9.548C636.618 9.128 636.478 8.764 636.245 8.456C636.012 8.13867 635.718 7.90067 635.363 7.742C635.018 7.574 634.658 7.49 634.285 7.49ZM640.664 7.658V12.348C640.664 12.7027 640.73 12.9453 640.86 13.076C640.991 13.1973 641.164 13.258 641.378 13.258C641.434 13.258 641.504 13.2487 641.588 13.23C641.672 13.202 641.738 13.188 641.784 13.188C641.868 13.188 641.938 13.2253 641.994 13.3C642.06 13.3653 642.092 13.4447 642.092 13.538C642.092 13.6687 642.018 13.7807 641.868 13.874C641.719 13.958 641.542 14 641.336 14C641.084 14 640.86 13.9767 640.664 13.93C640.468 13.8833 640.277 13.7433 640.09 13.51C639.913 13.2767 639.824 12.9033 639.824 12.39V7.658H638.802C638.69 7.658 638.592 7.62067 638.508 7.546C638.434 7.47133 638.396 7.378 638.396 7.266C638.396 7.154 638.434 7.06067 638.508 6.986C638.592 6.91133 638.69 6.874 638.802 6.874H639.824V5.32C639.824 5.19867 639.862 5.10067 639.936 5.026C640.02 4.942 640.123 4.9 640.244 4.9C640.366 4.9 640.464 4.942 640.538 5.026C640.622 5.10067 640.664 5.19867 640.664 5.32V6.874H642.064C642.167 6.874 642.256 6.916 642.33 7C642.414 7.084 642.456 7.17733 642.456 7.28C642.456 7.392 642.419 7.48533 642.344 7.56C642.27 7.62533 642.176 7.658 642.064 7.658H640.664ZM647.27 6.79C648.11 6.79 648.736 7.056 649.146 7.588C649.557 8.11067 649.762 8.78733 649.762 9.618V13.58C649.762 13.7013 649.72 13.804 649.636 13.888C649.562 13.9627 649.464 14 649.342 14C649.221 14 649.118 13.9627 649.034 13.888C648.96 13.804 648.922 13.7013 648.922 13.58V9.618C648.922 9.01133 648.778 8.52133 648.488 8.148C648.199 7.76533 647.746 7.574 647.13 7.574C646.738 7.574 646.365 7.66733 646.01 7.854C645.665 8.04067 645.385 8.29267 645.17 8.61C644.956 8.918 644.848 9.254 644.848 9.618V13.58C644.848 13.7013 644.806 13.804 644.722 13.888C644.648 13.9627 644.55 14 644.428 14C644.307 14 644.204 13.9627 644.12 13.888C644.046 13.804 644.008 13.7013 644.008 13.58V4.06C644.008 3.93867 644.046 3.84067 644.12 3.766C644.204 3.682 644.307 3.64 644.428 3.64C644.55 3.64 644.648 3.682 644.722 3.766C644.806 3.84067 644.848 3.93867 644.848 4.06V8.162C645.1 7.76067 645.45 7.434 645.898 7.182C646.346 6.92067 646.804 6.79 647.27 6.79ZM658.573 10.416C658.573 11.116 658.419 11.7507 658.111 12.32C657.803 12.8893 657.379 13.3373 656.837 13.664C656.296 13.9813 655.694 14.14 655.031 14.14C654.369 14.14 653.767 13.9813 653.225 13.664C652.684 13.3373 652.259 12.8893 651.951 12.32C651.643 11.7507 651.489 11.116 651.489 10.416C651.489 9.716 651.643 9.08133 651.951 8.512C652.259 7.94267 652.684 7.49467 653.225 7.168C653.767 6.84133 654.369 6.678 655.031 6.678C655.694 6.678 656.296 6.84133 656.837 7.168C657.379 7.49467 657.803 7.94267 658.111 8.512C658.419 9.08133 658.573 9.716 658.573 10.416ZM657.733 10.416C657.733 9.856 657.617 9.352 657.383 8.904C657.15 8.456 656.823 8.106 656.403 7.854C655.993 7.59267 655.535 7.462 655.031 7.462C654.527 7.462 654.07 7.59267 653.659 7.854C653.249 8.106 652.922 8.456 652.679 8.904C652.446 9.352 652.329 9.856 652.329 10.416C652.329 10.9667 652.446 11.466 652.679 11.914C652.922 12.362 653.249 12.7167 653.659 12.978C654.07 13.23 654.527 13.356 655.031 13.356C655.535 13.356 655.993 13.23 656.403 12.978C656.823 12.726 657.15 12.376 657.383 11.928C657.617 11.48 657.733 10.976 657.733 10.416ZM666.102 3.64C666.223 3.64 666.321 3.682 666.396 3.766C666.48 3.84067 666.522 3.93867 666.522 4.06V13.58C666.522 13.7013 666.48 13.804 666.396 13.888C666.321 13.9627 666.223 14 666.102 14C665.98 14 665.878 13.9627 665.794 13.888C665.719 13.804 665.682 13.7013 665.682 13.58V12.6C665.448 13.0293 665.098 13.3933 664.632 13.692C664.174 13.9907 663.666 14.14 663.106 14.14C662.49 14.14 661.93 13.9813 661.426 13.664C660.931 13.3373 660.539 12.8893 660.25 12.32C659.96 11.7507 659.816 11.1113 659.816 10.402C659.816 9.702 659.96 9.06733 660.25 8.498C660.539 7.92867 660.931 7.48533 661.426 7.168C661.93 6.84133 662.485 6.678 663.092 6.678C663.642 6.678 664.151 6.818 664.618 7.098C665.084 7.36867 665.439 7.72333 665.682 8.162V4.06C665.682 3.93867 665.719 3.84067 665.794 3.766C665.878 3.682 665.98 3.64 666.102 3.64ZM663.19 13.356C663.675 13.356 664.109 13.23 664.492 12.978C664.884 12.726 665.187 12.376 665.402 11.928C665.626 11.4707 665.738 10.962 665.738 10.402C665.738 9.85133 665.626 9.352 665.402 8.904C665.187 8.456 664.884 8.106 664.492 7.854C664.109 7.59267 663.675 7.462 663.19 7.462C662.704 7.462 662.266 7.59267 661.874 7.854C661.491 8.106 661.188 8.456 660.964 8.904C660.749 9.352 660.642 9.85133 660.642 10.402C660.642 10.962 660.749 11.466 660.964 11.914C661.188 12.362 661.491 12.7167 661.874 12.978C662.266 13.23 662.704 13.356 663.19 13.356ZM680.41 13.216C680.531 13.3093 680.592 13.426 680.592 13.566C680.592 13.6593 680.554 13.748 680.48 13.832C680.414 13.916 680.326 13.958 680.214 13.958C680.12 13.958 680.036 13.9347 679.962 13.888L679.654 13.65C679.224 13.3327 678.86 13.048 678.562 12.796C678.16 13.216 677.68 13.5473 677.12 13.79C676.569 14.0233 675.944 14.14 675.244 14.14C674.6 14.14 674.016 13.9907 673.494 13.692C672.98 13.384 672.579 12.9873 672.29 12.502C672 12.0073 671.856 11.4893 671.856 10.948C671.856 10.332 672.033 9.76733 672.388 9.254C672.742 8.73133 673.265 8.33467 673.956 8.064C673.564 7.448 673.368 6.87867 673.368 6.356C673.368 5.91733 673.475 5.52533 673.69 5.18C673.904 4.83467 674.208 4.564 674.6 4.368C675.001 4.16267 675.468 4.06 676 4.06C676.634 4.06 677.176 4.18133 677.624 4.424C678.081 4.66667 678.403 4.97 678.59 5.334C678.636 5.42733 678.66 5.516 678.66 5.6C678.66 5.69333 678.622 5.77733 678.548 5.852C678.473 5.91733 678.38 5.95 678.268 5.95C678.118 5.95 678.016 5.89867 677.96 5.796C677.754 5.488 677.493 5.25 677.176 5.082C676.868 4.914 676.476 4.83 676 4.83C675.44 4.83 675.006 4.97 674.698 5.25C674.399 5.52067 674.25 5.88933 674.25 6.356C674.25 6.748 674.394 7.182 674.684 7.658C674.982 8.134 675.379 8.64733 675.874 9.198C676.564 9.97267 677.418 10.794 678.436 11.662C678.762 11.1113 678.986 10.5047 679.108 9.842C679.126 9.758 679.164 9.688 679.22 9.632C679.285 9.576 679.374 9.548 679.486 9.548C679.607 9.548 679.705 9.59933 679.78 9.702C679.864 9.79533 679.896 9.90733 679.878 10.038C679.766 10.8033 679.495 11.5127 679.066 12.166C679.458 12.4927 679.906 12.8427 680.41 13.216ZM675.342 13.328C676.415 13.328 677.283 12.9827 677.946 12.292C676.956 11.4987 676.014 10.5887 675.118 9.562C674.782 9.17 674.544 8.88067 674.404 8.694C673.825 8.87133 673.4 9.15133 673.13 9.534C672.859 9.91667 672.724 10.3507 672.724 10.836C672.724 11.2653 672.822 11.6713 673.018 12.054C673.223 12.4367 673.522 12.7447 673.914 12.978C674.315 13.2113 674.791 13.328 675.342 13.328ZM693.236 4.928C693.376 5.012 693.446 5.12867 693.446 5.278C693.446 5.362 693.413 5.45533 693.348 5.558C693.264 5.66067 693.156 5.712 693.026 5.712C692.951 5.712 692.876 5.68867 692.802 5.642C692.055 5.14733 691.238 4.9 690.352 4.9C689.596 4.9 688.91 5.07733 688.294 5.432C687.687 5.78667 687.206 6.286 686.852 6.93C686.506 7.56467 686.334 8.288 686.334 9.1C686.334 9.93067 686.511 10.668 686.866 11.312C687.22 11.9467 687.701 12.4413 688.308 12.796C688.924 13.1413 689.605 13.314 690.352 13.314C691.238 13.314 692.05 13.0713 692.788 12.586C692.862 12.5393 692.942 12.516 693.026 12.516C693.156 12.516 693.264 12.572 693.348 12.684C693.413 12.7587 693.446 12.8473 693.446 12.95C693.446 13.0993 693.38 13.2113 693.25 13.286C692.886 13.5287 692.438 13.734 691.906 13.902C691.374 14.0607 690.856 14.14 690.352 14.14C689.465 14.14 688.644 13.93 687.888 13.51C687.141 13.0807 686.544 12.4833 686.096 11.718C685.657 10.9527 685.438 10.08 685.438 9.1C685.438 8.15733 685.657 7.30333 686.096 6.538C686.534 5.76333 687.127 5.16133 687.874 4.732C688.62 4.29333 689.446 4.074 690.352 4.074C690.874 4.074 691.383 4.14867 691.878 4.298C692.382 4.44733 692.834 4.65733 693.236 4.928ZM698.28 6.79C699.12 6.79 699.745 7.056 700.156 7.588C700.567 8.11067 700.772 8.78733 700.772 9.618V13.58C700.772 13.7013 700.73 13.804 700.646 13.888C700.571 13.9627 700.473 14 700.352 14C700.231 14 700.128 13.9627 700.044 13.888C699.969 13.804 699.932 13.7013 699.932 13.58V9.618C699.932 9.01133 699.787 8.52133 699.498 8.148C699.209 7.76533 698.756 7.574 698.14 7.574C697.748 7.574 697.375 7.66733 697.02 7.854C696.675 8.04067 696.395 8.29267 696.18 8.61C695.965 8.918 695.858 9.254 695.858 9.618V13.58C695.858 13.7013 695.816 13.804 695.732 13.888C695.657 13.9627 695.559 14 695.438 14C695.317 14 695.214 13.9627 695.13 13.888C695.055 13.804 695.018 13.7013 695.018 13.58V4.06C695.018 3.93867 695.055 3.84067 695.13 3.766C695.214 3.682 695.317 3.64 695.438 3.64C695.559 3.64 695.657 3.682 695.732 3.766C695.816 3.84067 695.858 3.93867 695.858 4.06V8.162C696.11 7.76067 696.46 7.434 696.908 7.182C697.356 6.92067 697.813 6.79 698.28 6.79ZM709.023 10.01C709.023 10.122 708.981 10.22 708.897 10.304C708.813 10.3787 708.715 10.416 708.603 10.416H703.311C703.311 10.976 703.423 11.48 703.647 11.928C703.88 12.3667 704.207 12.7167 704.627 12.978C705.056 13.23 705.56 13.356 706.139 13.356C706.587 13.356 706.988 13.2627 707.343 13.076C707.698 12.8893 707.982 12.6513 708.197 12.362C708.3 12.278 708.398 12.236 708.491 12.236C708.584 12.236 708.668 12.2733 708.743 12.348C708.818 12.4227 708.855 12.5067 708.855 12.6C708.855 12.7027 708.808 12.8007 708.715 12.894C708.416 13.258 708.038 13.5567 707.581 13.79C707.133 14.0233 706.657 14.14 706.153 14.14C705.434 14.14 704.8 13.986 704.249 13.678C703.698 13.37 703.269 12.9407 702.961 12.39C702.653 11.83 702.499 11.186 702.499 10.458C702.499 9.69267 702.648 9.02533 702.947 8.456C703.255 7.87733 703.661 7.43867 704.165 7.14C704.669 6.832 705.206 6.678 705.775 6.678C706.335 6.678 706.858 6.80867 707.343 7.07C707.838 7.33133 708.239 7.714 708.547 8.218C708.855 8.722 709.014 9.31933 709.023 10.01ZM705.775 7.49C705.234 7.49 704.73 7.67667 704.263 8.05C703.806 8.42333 703.512 8.96 703.381 9.66H708.155V9.548C708.108 9.128 707.968 8.764 707.735 8.456C707.502 8.13867 707.208 7.90067 706.853 7.742C706.508 7.574 706.148 7.49 705.775 7.49ZM713.848 6.678C714.287 6.678 714.693 6.72933 715.066 6.832C715.449 6.92533 715.752 7.056 715.976 7.224C716.21 7.392 716.326 7.574 716.326 7.77C716.326 7.87267 716.289 7.966 716.214 8.05C716.149 8.134 716.065 8.176 715.962 8.176C715.869 8.176 715.79 8.15733 715.724 8.12C715.668 8.08267 715.603 8.02667 715.528 7.952C715.407 7.83067 715.29 7.742 715.178 7.686C715.038 7.62067 714.852 7.56933 714.618 7.532C714.394 7.48533 714.152 7.462 713.89 7.462C713.377 7.462 712.906 7.59267 712.476 7.854C712.056 8.11533 711.725 8.47 711.482 8.918C711.24 9.366 711.118 9.86067 711.118 10.402C711.118 10.962 711.235 11.466 711.468 11.914C711.702 12.362 712.024 12.7167 712.434 12.978C712.854 13.23 713.33 13.356 713.862 13.356C714.198 13.356 714.464 13.328 714.66 13.272C714.866 13.216 715.066 13.1367 715.262 13.034C715.328 12.9967 715.44 12.9127 715.598 12.782C715.673 12.7167 715.738 12.67 715.794 12.642C715.85 12.6047 715.911 12.586 715.976 12.586C716.088 12.586 716.177 12.6233 716.242 12.698C716.308 12.7633 716.34 12.852 716.34 12.964C716.34 13.1227 716.228 13.2953 716.004 13.482C715.78 13.6593 715.472 13.8133 715.08 13.944C714.688 14.0747 714.254 14.14 713.778 14.14C713.097 14.14 712.49 13.9813 711.958 13.664C711.426 13.3373 711.011 12.8893 710.712 12.32C710.423 11.7507 710.278 11.1113 710.278 10.402C710.278 9.72067 710.428 9.1 710.726 8.54C711.025 7.97067 711.445 7.518 711.986 7.182C712.528 6.846 713.148 6.678 713.848 6.678ZM723.616 13.258C723.7 13.3513 723.742 13.4587 723.742 13.58C723.742 13.7013 723.691 13.804 723.588 13.888C723.495 13.9627 723.406 14 723.322 14C723.201 14 723.098 13.9487 723.014 13.846L719.92 10.57L718.87 11.466V13.58C718.87 13.7013 718.828 13.804 718.744 13.888C718.669 13.9627 718.571 14 718.45 14C718.329 14 718.226 13.9627 718.142 13.888C718.067 13.804 718.03 13.7013 718.03 13.58V4.06C718.03 3.93867 718.067 3.84067 718.142 3.766C718.226 3.682 718.329 3.64 718.45 3.64C718.571 3.64 718.669 3.682 718.744 3.766C718.828 3.84067 718.87 3.93867 718.87 4.06V10.444L722.916 6.958C723 6.86467 723.098 6.818 723.21 6.818C723.313 6.818 723.406 6.86467 723.49 6.958C723.574 7.042 723.616 7.13533 723.616 7.238C723.616 7.35 723.565 7.45733 723.462 7.56L720.578 10.01L723.616 13.258ZM735.874 10.416C735.874 11.116 735.72 11.7507 735.412 12.32C735.104 12.8893 734.679 13.3373 734.138 13.664C733.597 13.9813 732.995 14.14 732.332 14.14C731.669 14.14 731.067 13.9813 730.526 13.664C729.985 13.3373 729.56 12.8893 729.252 12.32C728.944 11.7507 728.79 11.116 728.79 10.416C728.79 9.716 728.944 9.08133 729.252 8.512C729.56 7.94267 729.985 7.49467 730.526 7.168C731.067 6.84133 731.669 6.678 732.332 6.678C732.995 6.678 733.597 6.84133 734.138 7.168C734.679 7.49467 735.104 7.94267 735.412 8.512C735.72 9.08133 735.874 9.716 735.874 10.416ZM735.034 10.416C735.034 9.856 734.917 9.352 734.684 8.904C734.451 8.456 734.124 8.106 733.704 7.854C733.293 7.59267 732.836 7.462 732.332 7.462C731.828 7.462 731.371 7.59267 730.96 7.854C730.549 8.106 730.223 8.456 729.98 8.904C729.747 9.352 729.63 9.856 729.63 10.416C729.63 10.9667 729.747 11.466 729.98 11.914C730.223 12.362 730.549 12.7167 730.96 12.978C731.371 13.23 731.828 13.356 732.332 13.356C732.836 13.356 733.293 13.23 733.704 12.978C734.124 12.726 734.451 12.376 734.684 11.928C734.917 11.48 735.034 10.976 735.034 10.416ZM742.94 6.888C743.062 6.888 743.16 6.93 743.234 7.014C743.318 7.08867 743.36 7.18667 743.36 7.308V11.256C743.36 12.1707 743.104 12.8753 742.59 13.37C742.077 13.8553 741.368 14.098 740.462 14.098C739.566 14.098 738.862 13.8553 738.348 13.37C737.844 12.8753 737.592 12.1707 737.592 11.256V7.308C737.592 7.18667 737.63 7.08867 737.704 7.014C737.788 6.93 737.891 6.888 738.012 6.888C738.134 6.888 738.232 6.93 738.306 7.014C738.39 7.08867 738.432 7.18667 738.432 7.308V11.256C738.432 11.928 738.61 12.4413 738.964 12.796C739.319 13.1413 739.818 13.314 740.462 13.314C741.116 13.314 741.62 13.1413 741.974 12.796C742.338 12.4413 742.52 11.928 742.52 11.256V7.308C742.52 7.18667 742.558 7.08867 742.632 7.014C742.716 6.93 742.819 6.888 742.94 6.888ZM746.963 7.658V12.348C746.963 12.7027 747.028 12.9453 747.159 13.076C747.29 13.1973 747.462 13.258 747.677 13.258C747.733 13.258 747.803 13.2487 747.887 13.23C747.971 13.202 748.036 13.188 748.083 13.188C748.167 13.188 748.237 13.2253 748.293 13.3C748.358 13.3653 748.391 13.4447 748.391 13.538C748.391 13.6687 748.316 13.7807 748.167 13.874C748.018 13.958 747.84 14 747.635 14C747.383 14 747.159 13.9767 746.963 13.93C746.767 13.8833 746.576 13.7433 746.389 13.51C746.212 13.2767 746.123 12.9033 746.123 12.39V7.658H745.101C744.989 7.658 744.891 7.62067 744.807 7.546C744.732 7.47133 744.695 7.378 744.695 7.266C744.695 7.154 744.732 7.06067 744.807 6.986C744.891 6.91133 744.989 6.874 745.101 6.874H746.123V5.32C746.123 5.19867 746.16 5.10067 746.235 5.026C746.319 4.942 746.422 4.9 746.543 4.9C746.664 4.9 746.762 4.942 746.837 5.026C746.921 5.10067 746.963 5.19867 746.963 5.32V6.874H748.363C748.466 6.874 748.554 6.916 748.629 7C748.713 7.084 748.755 7.17733 748.755 7.28C748.755 7.392 748.718 7.48533 748.643 7.56C748.568 7.62533 748.475 7.658 748.363 7.658H746.963Z" fill="#666666"/>
</svg>
