<svg width="765" height="58" viewBox="0 0 765 58" fill="none" xmlns="http://www.w3.org/2000/svg">
<path d="M30.1261 14.084C29.3981 14.084 28.6981 13.9673 28.0261 13.734C27.3635 13.5007 26.8501 13.1927 26.4861 12.81L26.8921 12.012C27.2468 12.3667 27.7181 12.656 28.3061 12.88C28.8941 13.0947 29.5008 13.202 30.1261 13.202C31.0035 13.202 31.6615 13.0433 32.1001 12.726C32.5388 12.3993 32.7581 11.9793 32.7581 11.466C32.7581 11.074 32.6368 10.7613 32.3941 10.528C32.1608 10.2947 31.8715 10.1173 31.5261 9.996C31.1808 9.86533 30.7001 9.72533 30.0841 9.576C29.3468 9.38933 28.7588 9.212 28.3201 9.044C27.8815 8.86667 27.5035 8.60067 27.1861 8.246C26.8781 7.89133 26.7241 7.41067 26.7241 6.804C26.7241 6.30933 26.8548 5.86133 27.1161 5.46C27.3775 5.04933 27.7788 4.72267 28.3201 4.48C28.8615 4.23733 29.5335 4.116 30.3361 4.116C30.8961 4.116 31.4421 4.19533 31.9741 4.354C32.5155 4.50333 32.9821 4.71333 33.3741 4.984L33.0241 5.81C32.6135 5.53933 32.1748 5.33867 31.7081 5.208C31.2415 5.068 30.7841 4.998 30.3361 4.998C29.4775 4.998 28.8288 5.166 28.3901 5.502C27.9608 5.82867 27.7461 6.25333 27.7461 6.776C27.7461 7.168 27.8628 7.48533 28.0961 7.728C28.3388 7.96133 28.6375 8.14333 28.9921 8.274C29.3561 8.39533 29.8415 8.53067 30.4481 8.68C31.1668 8.85733 31.7455 9.03467 32.1841 9.212C32.6321 9.38 33.0101 9.64133 33.3181 9.996C33.6261 10.3413 33.7801 10.8127 33.7801 11.41C33.7801 11.9047 33.6448 12.3573 33.3741 12.768C33.1128 13.1693 32.7068 13.4913 32.1561 13.734C31.6055 13.9673 30.9288 14.084 30.1261 14.084ZM35.8274 6.636H36.8214V14H35.8274V6.636ZM36.3314 5.026C36.1261 5.026 35.9534 4.956 35.8134 4.816C35.6734 4.676 35.6034 4.508 35.6034 4.312C35.6034 4.12533 35.6734 3.962 35.8134 3.822C35.9534 3.682 36.1261 3.612 36.3314 3.612C36.5367 3.612 36.7094 3.682 36.8494 3.822C36.9894 3.95267 37.0594 4.11133 37.0594 4.298C37.0594 4.50333 36.9894 4.676 36.8494 4.816C36.7094 4.956 36.5367 5.026 36.3314 5.026ZM46.4052 6.636V13.104C46.4052 14.3547 46.0972 15.2787 45.4812 15.876C44.8745 16.4827 43.9552 16.786 42.7232 16.786C42.0418 16.786 41.3932 16.6833 40.7772 16.478C40.1705 16.282 39.6758 16.0067 39.2932 15.652L39.7972 14.896C40.1518 15.2133 40.5812 15.4607 41.0852 15.638C41.5985 15.8153 42.1352 15.904 42.6952 15.904C43.6285 15.904 44.3145 15.6847 44.7532 15.246C45.1918 14.8167 45.4112 14.1447 45.4112 13.23V12.292C45.1032 12.7587 44.6972 13.1133 44.1932 13.356C43.6985 13.5987 43.1478 13.72 42.5412 13.72C41.8505 13.72 41.2205 13.5707 40.6512 13.272C40.0912 12.964 39.6478 12.5393 39.3212 11.998C39.0038 11.4473 38.8452 10.8267 38.8452 10.136C38.8452 9.44533 39.0038 8.82933 39.3212 8.288C39.6478 7.74667 40.0912 7.32667 40.6512 7.028C41.2112 6.72933 41.8412 6.58 42.5412 6.58C43.1665 6.58 43.7312 6.706 44.2352 6.958C44.7392 7.21 45.1452 7.574 45.4532 8.05V6.636H46.4052ZM42.6392 12.838C43.1712 12.838 43.6518 12.726 44.0812 12.502C44.5105 12.2687 44.8418 11.9467 45.0752 11.536C45.3178 11.1253 45.4392 10.6587 45.4392 10.136C45.4392 9.61333 45.3178 9.15133 45.0752 8.75C44.8418 8.33933 44.5105 8.022 44.0812 7.798C43.6612 7.56467 43.1805 7.448 42.6392 7.448C42.1072 7.448 41.6265 7.56 41.1972 7.784C40.7772 8.008 40.4458 8.32533 40.2032 8.736C39.9698 9.14667 39.8532 9.61333 39.8532 10.136C39.8532 10.6587 39.9698 11.1253 40.2032 11.536C40.4458 11.9467 40.7772 12.2687 41.1972 12.502C41.6265 12.726 42.1072 12.838 42.6392 12.838ZM52.9368 6.58C53.8608 6.58 54.5935 6.85067 55.1348 7.392C55.6855 7.924 55.9608 8.70333 55.9608 9.73V14H54.9668V9.828C54.9668 9.06267 54.7755 8.47933 54.3928 8.078C54.0102 7.67667 53.4642 7.476 52.7548 7.476C51.9615 7.476 51.3315 7.714 50.8648 8.19C50.4075 8.65667 50.1788 9.30533 50.1788 10.136V14H49.1848V6.636H50.1368V7.994C50.4075 7.546 50.7808 7.20067 51.2568 6.958C51.7422 6.706 52.3022 6.58 52.9368 6.58ZM62.3235 6.636H63.3175V14H62.3235V6.636ZM62.8275 5.026C62.6222 5.026 62.4495 4.956 62.3095 4.816C62.1695 4.676 62.0995 4.508 62.0995 4.312C62.0995 4.12533 62.1695 3.962 62.3095 3.822C62.4495 3.682 62.6222 3.612 62.8275 3.612C63.0328 3.612 63.2055 3.682 63.3455 3.822C63.4855 3.95267 63.5555 4.11133 63.5555 4.298C63.5555 4.50333 63.4855 4.676 63.3455 4.816C63.2055 4.956 63.0328 5.026 62.8275 5.026ZM69.8353 6.58C70.7593 6.58 71.4919 6.85067 72.0333 7.392C72.5839 7.924 72.8593 8.70333 72.8593 9.73V14H71.8653V9.828C71.8653 9.06267 71.6739 8.47933 71.2913 8.078C70.9086 7.67667 70.3626 7.476 69.6533 7.476C68.8599 7.476 68.2299 7.714 67.7633 8.19C67.3059 8.65667 67.0773 9.30533 67.0773 10.136V14H66.0833V6.636H67.0353V7.994C67.3059 7.546 67.6793 7.20067 68.1553 6.958C68.6406 6.706 69.2006 6.58 69.8353 6.58Z" fill="#666666"/>
<path d="M326.89 4.2H327.926V14H326.89V4.2ZM334.657 6.58C335.581 6.58 336.313 6.85067 336.855 7.392C337.405 7.924 337.681 8.70333 337.681 9.73V14H336.687V9.828C336.687 9.06267 336.495 8.47933 336.113 8.078C335.73 7.67667 335.184 7.476 334.475 7.476C333.681 7.476 333.051 7.714 332.585 8.19C332.127 8.65667 331.899 9.30533 331.899 10.136V14H330.905V6.636H331.857V7.994C332.127 7.546 332.501 7.20067 332.977 6.958C333.462 6.706 334.022 6.58 334.657 6.58ZM342.815 4.382C342.386 4.382 342.059 4.49867 341.835 4.732C341.62 4.96533 341.513 5.31067 341.513 5.768V6.636H343.781V7.476H341.541V14H340.547V7.476H339.231V6.636H340.547V5.726C340.547 5.054 340.738 4.522 341.121 4.13C341.513 3.738 342.064 3.542 342.773 3.542C343.053 3.542 343.324 3.584 343.585 3.668C343.846 3.74267 344.066 3.85467 344.243 4.004L343.907 4.746C343.618 4.50333 343.254 4.382 342.815 4.382ZM348.01 14.07C347.301 14.07 346.662 13.9113 346.092 13.594C345.523 13.2673 345.075 12.8193 344.748 12.25C344.422 11.6807 344.258 11.0367 344.258 10.318C344.258 9.59933 344.422 8.95533 344.748 8.386C345.075 7.81667 345.523 7.37333 346.092 7.056C346.662 6.73867 347.301 6.58 348.01 6.58C348.72 6.58 349.359 6.73867 349.928 7.056C350.498 7.37333 350.941 7.81667 351.258 8.386C351.585 8.95533 351.748 9.59933 351.748 10.318C351.748 11.0367 351.585 11.6807 351.258 12.25C350.941 12.8193 350.498 13.2673 349.928 13.594C349.359 13.9113 348.72 14.07 348.01 14.07ZM348.01 13.188C348.533 13.188 349 13.0713 349.41 12.838C349.83 12.5953 350.157 12.2547 350.39 11.816C350.624 11.3773 350.74 10.878 350.74 10.318C350.74 9.758 350.624 9.25867 350.39 8.82C350.157 8.38133 349.83 8.04533 349.41 7.812C349 7.56933 348.533 7.448 348.01 7.448C347.488 7.448 347.016 7.56933 346.596 7.812C346.186 8.04533 345.859 8.38133 345.616 8.82C345.383 9.25867 345.266 9.758 345.266 10.318C345.266 10.878 345.383 11.3773 345.616 11.816C345.859 12.2547 346.186 12.5953 346.596 12.838C347.016 13.0713 347.488 13.188 348.01 13.188ZM354.73 8.078C354.963 7.58333 355.308 7.21 355.766 6.958C356.232 6.706 356.806 6.58 357.488 6.58V7.546L357.25 7.532C356.475 7.532 355.868 7.77 355.43 8.246C354.991 8.722 354.772 9.38933 354.772 10.248V14H353.778V6.636H354.73V8.078ZM368.471 6.58C369.395 6.58 370.119 6.846 370.641 7.378C371.173 7.91 371.439 8.694 371.439 9.73V14H370.445V9.828C370.445 9.06267 370.259 8.47933 369.885 8.078C369.521 7.67667 369.003 7.476 368.331 7.476C367.566 7.476 366.964 7.714 366.525 8.19C366.087 8.65667 365.867 9.30533 365.867 10.136V14H364.873V9.828C364.873 9.06267 364.687 8.47933 364.313 8.078C363.949 7.67667 363.427 7.476 362.745 7.476C361.989 7.476 361.387 7.714 360.939 8.19C360.501 8.65667 360.281 9.30533 360.281 10.136V14H359.287V6.636H360.239V7.98C360.501 7.532 360.865 7.18667 361.331 6.944C361.798 6.70133 362.335 6.58 362.941 6.58C363.557 6.58 364.089 6.71067 364.537 6.972C364.995 7.23333 365.335 7.62067 365.559 8.134C365.83 7.64867 366.217 7.27067 366.721 7C367.235 6.72 367.818 6.58 368.471 6.58ZM376.711 6.58C377.672 6.58 378.41 6.82267 378.923 7.308C379.436 7.784 379.693 8.49333 379.693 9.436V14H378.741V12.852C378.517 13.2347 378.186 13.5333 377.747 13.748C377.318 13.9627 376.804 14.07 376.207 14.07C375.386 14.07 374.732 13.874 374.247 13.482C373.762 13.09 373.519 12.572 373.519 11.928C373.519 11.3027 373.743 10.7987 374.191 10.416C374.648 10.0333 375.372 9.842 376.361 9.842H378.699V9.394C378.699 8.75933 378.522 8.27867 378.167 7.952C377.812 7.616 377.294 7.448 376.613 7.448C376.146 7.448 375.698 7.52733 375.269 7.686C374.84 7.83533 374.471 8.04533 374.163 8.316L373.715 7.574C374.088 7.25667 374.536 7.014 375.059 6.846C375.582 6.66867 376.132 6.58 376.711 6.58ZM376.361 13.286C376.921 13.286 377.402 13.16 377.803 12.908C378.204 12.6467 378.503 12.2733 378.699 11.788V10.584H376.389C375.129 10.584 374.499 11.0227 374.499 11.9C374.499 12.3293 374.662 12.67 374.989 12.922C375.316 13.1647 375.773 13.286 376.361 13.286ZM386.271 13.552C386.084 13.72 385.851 13.8507 385.571 13.944C385.3 14.028 385.016 14.07 384.717 14.07C384.026 14.07 383.494 13.8833 383.121 13.51C382.748 13.1367 382.561 12.6093 382.561 11.928V7.476H381.245V6.636H382.561V5.026H383.555V6.636H385.795V7.476H383.555V11.872C383.555 12.3107 383.662 12.6467 383.877 12.88C384.101 13.104 384.418 13.216 384.829 13.216C385.034 13.216 385.23 13.1833 385.417 13.118C385.613 13.0527 385.781 12.9593 385.921 12.838L386.271 13.552ZM388.08 6.636H389.074V14H388.08V6.636ZM388.584 5.026C388.379 5.026 388.206 4.956 388.066 4.816C387.926 4.676 387.856 4.508 387.856 4.312C387.856 4.12533 387.926 3.962 388.066 3.822C388.206 3.682 388.379 3.612 388.584 3.612C388.79 3.612 388.962 3.682 389.102 3.822C389.242 3.95267 389.312 4.11133 389.312 4.298C389.312 4.50333 389.242 4.676 389.102 4.816C388.962 4.956 388.79 5.026 388.584 5.026ZM394.85 14.07C394.141 14.07 393.501 13.9113 392.932 13.594C392.363 13.2673 391.915 12.8193 391.588 12.25C391.261 11.6807 391.098 11.0367 391.098 10.318C391.098 9.59933 391.261 8.95533 391.588 8.386C391.915 7.81667 392.363 7.37333 392.932 7.056C393.501 6.73867 394.141 6.58 394.85 6.58C395.559 6.58 396.199 6.73867 396.768 7.056C397.337 7.37333 397.781 7.81667 398.098 8.386C398.425 8.95533 398.588 9.59933 398.588 10.318C398.588 11.0367 398.425 11.6807 398.098 12.25C397.781 12.8193 397.337 13.2673 396.768 13.594C396.199 13.9113 395.559 14.07 394.85 14.07ZM394.85 13.188C395.373 13.188 395.839 13.0713 396.25 12.838C396.67 12.5953 396.997 12.2547 397.23 11.816C397.463 11.3773 397.58 10.878 397.58 10.318C397.58 9.758 397.463 9.25867 397.23 8.82C396.997 8.38133 396.67 8.04533 396.25 7.812C395.839 7.56933 395.373 7.448 394.85 7.448C394.327 7.448 393.856 7.56933 393.436 7.812C393.025 8.04533 392.699 8.38133 392.456 8.82C392.223 9.25867 392.106 9.758 392.106 10.318C392.106 10.878 392.223 11.3773 392.456 11.816C392.699 12.2547 393.025 12.5953 393.436 12.838C393.856 13.0713 394.327 13.188 394.85 13.188ZM404.369 6.58C405.293 6.58 406.026 6.85067 406.567 7.392C407.118 7.924 407.393 8.70333 407.393 9.73V14H406.399V9.828C406.399 9.06267 406.208 8.47933 405.825 8.078C405.443 7.67667 404.897 7.476 404.187 7.476C403.394 7.476 402.764 7.714 402.297 8.19C401.84 8.65667 401.611 9.30533 401.611 10.136V14H400.617V6.636H401.569V7.994C401.84 7.546 402.213 7.20067 402.689 6.958C403.175 6.706 403.735 6.58 404.369 6.58Z" fill="#666666"/>
<path d="M623.915 4.2V14H622.921V6.16L619.071 12.754H618.581L614.731 6.202V14H613.737V4.2H614.591L618.847 11.466L623.061 4.2H623.915ZM633.31 10.626H627.15C627.206 11.3913 627.5 12.012 628.032 12.488C628.564 12.9547 629.236 13.188 630.048 13.188C630.505 13.188 630.925 13.1087 631.308 12.95C631.69 12.782 632.022 12.5393 632.302 12.222L632.862 12.866C632.535 13.258 632.124 13.5567 631.63 13.762C631.144 13.9673 630.608 14.07 630.02 14.07C629.264 14.07 628.592 13.9113 628.004 13.594C627.425 13.2673 626.972 12.8193 626.646 12.25C626.319 11.6807 626.156 11.0367 626.156 10.318C626.156 9.59933 626.31 8.95533 626.618 8.386C626.935 7.81667 627.364 7.37333 627.906 7.056C628.456 6.73867 629.072 6.58 629.754 6.58C630.435 6.58 631.046 6.73867 631.588 7.056C632.129 7.37333 632.554 7.81667 632.862 8.386C633.17 8.946 633.324 9.59 633.324 10.318L633.31 10.626ZM629.754 7.434C629.044 7.434 628.447 7.66267 627.962 8.12C627.486 8.568 627.215 9.156 627.15 9.884H632.372C632.306 9.156 632.031 8.568 631.546 8.12C631.07 7.66267 630.472 7.434 629.754 7.434ZM639.225 13.552C639.038 13.72 638.805 13.8507 638.525 13.944C638.254 14.028 637.97 14.07 637.671 14.07C636.98 14.07 636.448 13.8833 636.075 13.51C635.702 13.1367 635.515 12.6093 635.515 11.928V7.476H634.199V6.636H635.515V5.026H636.509V6.636H638.749V7.476H636.509V11.872C636.509 12.3107 636.616 12.6467 636.831 12.88C637.055 13.104 637.372 13.216 637.783 13.216C637.988 13.216 638.184 13.1833 638.371 13.118C638.567 13.0527 638.735 12.9593 638.875 12.838L639.225 13.552ZM644.786 6.58C645.71 6.58 646.443 6.85067 646.984 7.392C647.535 7.924 647.81 8.70333 647.81 9.73V14H646.816V9.828C646.816 9.06267 646.625 8.47933 646.242 8.078C645.86 7.67667 645.314 7.476 644.604 7.476C643.811 7.476 643.181 7.714 642.714 8.19C642.257 8.65667 642.028 9.30533 642.028 10.136V14H641.034V3.612H642.028V7.924C642.299 7.49467 642.672 7.16333 643.148 6.93C643.624 6.69667 644.17 6.58 644.786 6.58ZM653.546 14.07C652.837 14.07 652.198 13.9113 651.628 13.594C651.059 13.2673 650.611 12.8193 650.284 12.25C649.958 11.6807 649.794 11.0367 649.794 10.318C649.794 9.59933 649.958 8.95533 650.284 8.386C650.611 7.81667 651.059 7.37333 651.628 7.056C652.198 6.73867 652.837 6.58 653.546 6.58C654.256 6.58 654.895 6.73867 655.464 7.056C656.034 7.37333 656.477 7.81667 656.794 8.386C657.121 8.95533 657.284 9.59933 657.284 10.318C657.284 11.0367 657.121 11.6807 656.794 12.25C656.477 12.8193 656.034 13.2673 655.464 13.594C654.895 13.9113 654.256 14.07 653.546 14.07ZM653.546 13.188C654.069 13.188 654.536 13.0713 654.946 12.838C655.366 12.5953 655.693 12.2547 655.926 11.816C656.16 11.3773 656.276 10.878 656.276 10.318C656.276 9.758 656.16 9.25867 655.926 8.82C655.693 8.38133 655.366 8.04533 654.946 7.812C654.536 7.56933 654.069 7.448 653.546 7.448C653.024 7.448 652.552 7.56933 652.132 7.812C651.722 8.04533 651.395 8.38133 651.152 8.82C650.919 9.25867 650.802 9.758 650.802 10.318C650.802 10.878 650.919 11.3773 651.152 11.816C651.395 12.2547 651.722 12.5953 652.132 12.838C652.552 13.0713 653.024 13.188 653.546 13.188ZM666.034 3.612V14H665.082V12.544C664.783 13.0387 664.386 13.4167 663.892 13.678C663.406 13.9393 662.856 14.07 662.24 14.07C661.549 14.07 660.924 13.9113 660.364 13.594C659.804 13.2767 659.365 12.8333 659.048 12.264C658.73 11.6947 658.572 11.046 658.572 10.318C658.572 9.59 658.73 8.94133 659.048 8.372C659.365 7.80267 659.804 7.364 660.364 7.056C660.924 6.73867 661.549 6.58 662.24 6.58C662.837 6.58 663.374 6.706 663.85 6.958C664.335 7.20067 664.732 7.56 665.04 8.036V3.612H666.034ZM662.324 13.188C662.837 13.188 663.299 13.0713 663.71 12.838C664.13 12.5953 664.456 12.2547 664.69 11.816C664.932 11.3773 665.054 10.878 665.054 10.318C665.054 9.758 664.932 9.25867 664.69 8.82C664.456 8.38133 664.13 8.04533 663.71 7.812C663.299 7.56933 662.837 7.448 662.324 7.448C661.801 7.448 661.33 7.56933 660.91 7.812C660.499 8.04533 660.172 8.38133 659.93 8.82C659.696 9.25867 659.58 9.758 659.58 10.318C659.58 10.878 659.696 11.3773 659.93 11.816C660.172 12.2547 660.499 12.5953 660.91 12.838C661.33 13.0713 661.801 13.188 662.324 13.188ZM679.69 14.154L678.332 12.754C677.501 13.6407 676.409 14.084 675.056 14.084C674.421 14.084 673.852 13.9813 673.348 13.776C672.853 13.5613 672.466 13.2673 672.186 12.894C671.906 12.5113 671.766 12.0773 671.766 11.592C671.766 11.004 671.953 10.4767 672.326 10.01C672.699 9.54333 673.334 9.05333 674.23 8.54C673.763 8.05467 673.441 7.644 673.264 7.308C673.087 6.96267 672.998 6.59867 672.998 6.216C672.998 5.59067 673.222 5.08667 673.67 4.704C674.118 4.32133 674.72 4.13 675.476 4.13C676.176 4.13 676.731 4.30267 677.142 4.648C677.553 4.99333 677.758 5.46933 677.758 6.076C677.758 6.56133 677.595 7 677.268 7.392C676.941 7.77467 676.377 8.19933 675.574 8.666L678.262 11.438C678.561 10.906 678.78 10.276 678.92 9.548L679.732 9.8C679.555 10.6773 679.265 11.4287 678.864 12.054L680.264 13.496L679.69 14.154ZM675.476 4.872C674.991 4.872 674.608 4.99333 674.328 5.236C674.057 5.47867 673.922 5.80067 673.922 6.202C673.922 6.49133 673.997 6.76667 674.146 7.028C674.295 7.28933 674.589 7.644 675.028 8.092C675.737 7.68133 676.227 7.33133 676.498 7.042C676.769 6.75267 676.904 6.43533 676.904 6.09C676.904 5.71667 676.778 5.42267 676.526 5.208C676.274 4.984 675.924 4.872 675.476 4.872ZM675.112 13.258C676.195 13.258 677.072 12.8893 677.744 12.152L674.79 9.114C674.015 9.55267 673.479 9.94933 673.18 10.304C672.891 10.6587 672.746 11.0553 672.746 11.494C672.746 12.026 672.961 12.4553 673.39 12.782C673.829 13.0993 674.403 13.258 675.112 13.258ZM689.961 14.084C688.991 14.084 688.113 13.8693 687.329 13.44C686.555 13.0107 685.943 12.418 685.495 11.662C685.057 10.8967 684.837 10.0427 684.837 9.1C684.837 8.15733 685.057 7.308 685.495 6.552C685.943 5.78667 686.559 5.18933 687.343 4.76C688.127 4.33067 689.005 4.116 689.975 4.116C690.703 4.116 691.375 4.23733 691.991 4.48C692.607 4.72267 693.13 5.07733 693.559 5.544L692.901 6.202C692.136 5.42733 691.17 5.04 690.003 5.04C689.229 5.04 688.524 5.21733 687.889 5.572C687.255 5.92667 686.755 6.412 686.391 7.028C686.037 7.644 685.859 8.33467 685.859 9.1C685.859 9.86533 686.037 10.556 686.391 11.172C686.755 11.788 687.255 12.2733 687.889 12.628C688.524 12.9827 689.229 13.16 690.003 13.16C691.179 13.16 692.145 12.768 692.901 11.984L693.559 12.642C693.13 13.1087 692.603 13.468 691.977 13.72C691.361 13.9627 690.689 14.084 689.961 14.084ZM699.31 6.58C700.234 6.58 700.967 6.85067 701.508 7.392C702.059 7.924 702.334 8.70333 702.334 9.73V14H701.34V9.828C701.34 9.06267 701.149 8.47933 700.766 8.078C700.383 7.67667 699.837 7.476 699.128 7.476C698.335 7.476 697.705 7.714 697.238 8.19C696.781 8.65667 696.552 9.30533 696.552 10.136V14H695.558V3.612H696.552V7.924C696.823 7.49467 697.196 7.16333 697.672 6.93C698.148 6.69667 698.694 6.58 699.31 6.58ZM711.472 10.626H705.312C705.368 11.3913 705.662 12.012 706.194 12.488C706.726 12.9547 707.398 13.188 708.21 13.188C708.667 13.188 709.087 13.1087 709.47 12.95C709.852 12.782 710.184 12.5393 710.464 12.222L711.024 12.866C710.697 13.258 710.286 13.5567 709.792 13.762C709.306 13.9673 708.77 14.07 708.182 14.07C707.426 14.07 706.754 13.9113 706.166 13.594C705.587 13.2673 705.134 12.8193 704.808 12.25C704.481 11.6807 704.318 11.0367 704.318 10.318C704.318 9.59933 704.472 8.95533 704.78 8.386C705.097 7.81667 705.526 7.37333 706.068 7.056C706.618 6.73867 707.234 6.58 707.916 6.58C708.597 6.58 709.208 6.73867 709.75 7.056C710.291 7.37333 710.716 7.81667 711.024 8.386C711.332 8.946 711.486 9.59 711.486 10.318L711.472 10.626ZM707.916 7.434C707.206 7.434 706.609 7.66267 706.124 8.12C705.648 8.568 705.377 9.156 705.312 9.884H710.534C710.468 9.156 710.193 8.568 709.708 8.12C709.232 7.66267 708.634 7.434 707.916 7.434ZM716.561 14.07C715.833 14.07 715.18 13.9113 714.601 13.594C714.032 13.2767 713.584 12.8333 713.257 12.264C712.93 11.6853 712.767 11.0367 712.767 10.318C712.767 9.59933 712.93 8.95533 713.257 8.386C713.584 7.81667 714.032 7.37333 714.601 7.056C715.18 6.73867 715.833 6.58 716.561 6.58C717.196 6.58 717.76 6.706 718.255 6.958C718.759 7.20067 719.156 7.56 719.445 8.036L718.703 8.54C718.46 8.176 718.152 7.90533 717.779 7.728C717.406 7.54133 717 7.448 716.561 7.448C716.029 7.448 715.548 7.56933 715.119 7.812C714.699 8.04533 714.368 8.38133 714.125 8.82C713.892 9.25867 713.775 9.758 713.775 10.318C713.775 10.8873 713.892 11.3913 714.125 11.83C714.368 12.2593 714.699 12.5953 715.119 12.838C715.548 13.0713 716.029 13.188 716.561 13.188C717 13.188 717.406 13.0993 717.779 12.922C718.152 12.7447 718.46 12.474 718.703 12.11L719.445 12.614C719.156 13.09 718.759 13.454 718.255 13.706C717.751 13.9487 717.186 14.07 716.561 14.07ZM724.018 10.304L722.282 11.9V14H721.288V3.612H722.282V10.654L726.678 6.636H727.91L724.76 9.646L728.204 14H726.986L724.018 10.304ZM736.371 14.07C735.661 14.07 735.022 13.9113 734.453 13.594C733.883 13.2673 733.435 12.8193 733.109 12.25C732.782 11.6807 732.619 11.0367 732.619 10.318C732.619 9.59933 732.782 8.95533 733.109 8.386C733.435 7.81667 733.883 7.37333 734.453 7.056C735.022 6.73867 735.661 6.58 736.371 6.58C737.08 6.58 737.719 6.73867 738.289 7.056C738.858 7.37333 739.301 7.81667 739.619 8.386C739.945 8.95533 740.109 9.59933 740.109 10.318C740.109 11.0367 739.945 11.6807 739.619 12.25C739.301 12.8193 738.858 13.2673 738.289 13.594C737.719 13.9113 737.08 14.07 736.371 14.07ZM736.371 13.188C736.893 13.188 737.36 13.0713 737.771 12.838C738.191 12.5953 738.517 12.2547 738.751 11.816C738.984 11.3773 739.101 10.878 739.101 10.318C739.101 9.758 738.984 9.25867 738.751 8.82C738.517 8.38133 738.191 8.04533 737.771 7.812C737.36 7.56933 736.893 7.448 736.371 7.448C735.848 7.448 735.377 7.56933 734.957 7.812C734.546 8.04533 734.219 8.38133 733.977 8.82C733.743 9.25867 733.627 9.758 733.627 10.318C733.627 10.878 733.743 11.3773 733.977 11.816C734.219 12.2547 734.546 12.5953 734.957 12.838C735.377 13.0713 735.848 13.188 736.371 13.188ZM748.774 6.636V14H747.822V12.656C747.561 13.104 747.201 13.454 746.744 13.706C746.287 13.9487 745.764 14.07 745.176 14.07C744.215 14.07 743.454 13.804 742.894 13.272C742.343 12.7307 742.068 11.942 742.068 10.906V6.636H743.062V10.808C743.062 11.5827 743.253 12.1707 743.636 12.572C744.019 12.9733 744.565 13.174 745.274 13.174C746.049 13.174 746.66 12.9407 747.108 12.474C747.556 11.998 747.78 11.34 747.78 10.5V6.636H748.774ZM755.436 13.552C755.249 13.72 755.016 13.8507 754.736 13.944C754.465 14.028 754.181 14.07 753.882 14.07C753.191 14.07 752.659 13.8833 752.286 13.51C751.913 13.1367 751.726 12.6093 751.726 11.928V7.476H750.41V6.636H751.726V5.026H752.72V6.636H754.96V7.476H752.72V11.872C752.72 12.3107 752.827 12.6467 753.042 12.88C753.266 13.104 753.583 13.216 753.994 13.216C754.199 13.216 754.395 13.1833 754.582 13.118C754.778 13.0527 754.946 12.9593 755.086 12.838L755.436 13.552Z" fill="#666666"/>
<rect x="683" y="46" width="622" height="9.99995" transform="rotate(-180 683 46)" fill="#F68B1F"/>
<path d="M701 41C701 50.3888 693.389 58 684 58C674.611 58 667 50.3888 667 41C667 31.6112 674.611 24 684 24C693.389 24 701 31.6112 701 41Z" fill="#E6F3F4"/>
<path d="M683 46L371 46L371 36L683 36V46Z" fill="#E6F3F4"/>
<circle cx="50" cy="41" r="17" fill="#F68B1F"/>
<circle cx="367" cy="41" r="17" fill="#F68B1F"/>
</svg>
