<svg width="22" height="14" viewBox="0 0 22 14" fill="none" xmlns="http://www.w3.org/2000/svg">
<g clip-path="url(#clip0)">
<path d="M22 2.48926V13.5982C21.7042 13.7321 21.3814 13.973 21.0856 13.973C14.3619 13.9998 7.63814 13.9998 0.914425 13.9998C0.215159 13.9998 0 13.8124 0 13.1967C0 9.74356 0 6.2904 0 2.86402C0 2.78371 0.0268949 2.73018 0.0268949 2.56956C0.753056 3.21201 1.39853 3.69385 1.34474 4.81813C1.23716 7.22731 1.31785 9.63648 1.31785 12.0189V12.6613H20.6822C20.6822 12.4472 20.709 12.233 20.709 12.0189C20.709 9.52941 20.7359 7.03993 20.709 4.55044C20.709 3.9883 20.8166 3.56 21.2738 3.21201C21.5428 2.99786 21.7579 2.73018 22 2.48926Z" fill="white"/>
<path d="M22.0001 0.508604V0.829828C20.8167 2.06119 19.6064 3.26577 18.4231 4.49713C17.8314 5.08604 17.2128 5.67495 16.5673 6.3174C16.4866 5.83556 16.379 5.3805 16.3522 4.9522C16.3522 4.81836 16.4866 4.63098 16.6211 4.5239C17.5086 3.61377 18.3962 2.7304 19.2837 1.82027C19.4182 1.68642 19.5257 1.55258 19.6871 1.3652H2.28614C2.60888 1.68642 2.85093 1.95411 3.11988 2.19503C3.92673 2.99809 4.70668 3.82792 5.54042 4.60421C5.83626 4.89866 5.97074 5.16635 5.75558 5.54111C5.648 5.78203 5.59421 6.04971 5.48663 6.34417C5.35216 6.21033 5.24458 6.13002 5.137 6.02294C3.5502 4.47036 1.9634 2.89101 0.430396 1.28489C0.215238 1.09751 0.0807633 0.722753 0.107658 0.455067C0.161448 0.0267686 0.564871 0 0.941399 0C7.63822 0 14.3619 0 21.0588 0C21.4891 0 21.8118 0.107075 22.0001 0.508604Z" fill="white"/>
<path d="M14.55 3.61344C13.4473 2.38208 11.995 2.14116 10.462 2.43562C7.7456 2.97099 6.05122 5.64786 6.61602 8.43179C7.18081 11.2157 10.5965 12.6345 13.0708 11.1087C13.017 10.9213 12.9363 10.7339 12.8556 10.5197C12.6136 10.6001 12.4522 10.6804 12.2908 10.7339C10.5427 11.2693 8.8214 10.7874 7.98765 9.50254C6.75049 7.5752 7.42286 3.5599 10.9192 3.10483C12.1295 2.94422 13.259 3.23868 13.9852 4.30942C14.7383 5.40694 14.7652 6.61153 14.2542 7.81612C14.0121 8.40503 13.4742 8.75302 13.1246 8.59241C12.5598 8.35149 12.8018 7.84288 12.8287 7.44135C12.9094 6.7186 13.0977 5.99585 13.1784 5.27309C13.2053 5.11248 13.0977 4.79126 12.9901 4.76449C11.8605 4.4165 10.7578 4.44327 9.78961 5.19279C8.84829 5.91554 8.44487 6.93275 8.60624 8.11057C8.71382 9.0207 9.52066 9.60961 10.3813 9.3687C10.9192 9.20808 11.3764 8.83332 11.9143 8.56564C12.1295 9.31516 12.5867 9.58285 13.4742 9.3687C14.3886 9.15455 14.9265 8.53887 15.2224 7.68227C15.7334 6.18323 15.5989 4.79126 14.55 3.61344ZM11.5916 7.60197C11.484 7.89642 11.1881 8.16411 10.9192 8.35149C10.4889 8.64594 9.97787 8.45856 9.8434 8.0035C9.60135 7.25397 9.8434 6.58476 10.3275 6.02262C10.7847 5.48724 11.3764 5.29986 12.1564 5.54078C11.9681 6.23677 11.8336 6.93275 11.5916 7.60197Z" fill="white"/>
</g>
<defs>
<clipPath id="clip0">
<rect width="22" height="14" fill="white"/>
</clipPath>
</defs>
</svg>
