<svg width="21" height="22" viewBox="0 0 21 22" fill="none" xmlns="http://www.w3.org/2000/svg">
<path d="M21 11C21 11.75 20.9284 12.5 20.7852 13.225C20.7852 13.25 20.7852 13.3 20.7614 13.325C20.5943 14.125 20.3557 14.9 20.0216 15.625V15.65C20.0216 15.675 19.9977 15.7 19.9977 15.725C19.9977 15.725 19.9977 15.725 19.9977 15.75C19.9261 15.9 19.7591 16 19.592 16C19.3295 16 19.1148 15.775 19.1148 15.5C19.1148 15.425 19.1386 15.375 19.1625 15.3C19.1625 15.275 19.1864 15.25 19.1864 15.25C19.4966 14.575 19.7352 13.85 19.8784 13.1C20.0216 12.425 20.0693 11.75 20.0693 11.025C20.0455 5.475 15.7739 1 10.5 1C5.22614 1 0.954545 5.475 0.954545 11C0.954545 16.525 5.22614 21 10.5 21C10.8102 21 11.1443 20.975 11.4545 20.95C11.908 20.9 12.3375 20.825 12.767 20.725C13.125 20.625 13.4591 20.525 13.7932 20.4C13.9602 20.35 14.1034 20.3 14.2705 20.2C14.2943 20.175 14.342 20.175 14.3659 20.15C14.3898 20.125 14.4375 20.1 14.4614 20.075C15.1295 19.625 15.5591 18.85 15.5591 17.975C15.5591 17.475 15.4159 17.025 15.1773 16.625C15.1295 16.675 15.0818 16.725 15.0341 16.75C14.7955 17 14.4375 17 14.008 17C13.3398 16.975 12.6239 16.725 11.9318 16.4H11.908C11.6216 16.25 11.3352 16.1 11.0489 15.95C9.95114 15.3 8.97273 14.45 8.06591 13.525C6.96818 12.375 6.01364 11.1 5.34545 9.625C5.03523 8.95 4.82045 8.275 4.74886 7.525C4.70114 6.95 4.77273 6.45 5.22614 6.025C5.48864 5.8 5.70341 5.5 5.98977 5.3C6.51477 4.875 7.03977 4.925 7.54091 5.375C7.99432 5.775 8.35227 6.275 8.61477 6.85C8.87727 7.4 8.80568 7.9 8.4 8.35C8.28068 8.5 8.1375 8.65 8.01818 8.775C7.80341 8.975 7.75568 9.225 7.85114 9.5C7.97045 9.8 8.08977 10.075 8.28068 10.325C8.78182 11.1 9.40227 11.75 10.0466 12.375C10.4761 12.775 10.9295 13.175 11.4068 13.525C11.6455 13.7 11.9318 13.8 12.1943 13.9C12.3852 13.975 12.5523 13.9 12.6716 13.75C12.8625 13.55 13.0295 13.375 13.2205 13.2C13.5545 12.9 13.9602 12.825 14.3659 13C15.0341 13.275 15.583 13.7 16.0364 14.3C16.2034 14.525 16.2989 14.775 16.2989 15.025C16.2989 15.25 16.2273 15.5 16.0602 15.725C15.9886 15.825 15.917 15.9 15.8455 16C15.8455 16 15.8455 16 15.8216 16.025C16.2273 16.6 16.4659 17.325 16.4659 18.1C16.4659 18.225 16.4659 18.375 16.442 18.5C16.4182 18.65 16.3943 18.8 16.3705 18.95C16.1557 19.775 15.6784 20.5 15.0102 20.975C14.9148 21.05 14.8193 21.1 14.7477 21.15C14.5091 21.25 14.2705 21.35 14.0318 21.45C12.958 21.775 11.7409 22 10.5 22C4.70114 22 0 17.075 0 11C0 4.925 4.70114 0 10.5 0C16.2989 0 21 4.925 21 11Z" fill="white"/>
</svg>
