<svg width="209" height="37" viewBox="0 0 209 37" fill="none" xmlns="http://www.w3.org/2000/svg">
<path d="M18.7564 6.66699C17.0817 5.00033 15.0721 4.00033 13.0625 3.33366C11.3878 3.00033 9.04327 2.66699 6.69872 2.66699H0V34.3337H6.36378C9.04327 34.3337 11.3878 34.0003 13.0625 33.667C15.0721 33.0003 17.0817 32.0003 19.0913 30.3337C22.4407 27.3337 24.4503 23.3337 24.4503 18.3337C24.1154 13.667 22.4407 9.66699 18.7564 6.66699ZM19.0913 18.667C19.0913 22.3337 18.0865 25.0003 15.4071 27.0003C13.3974 28.667 10.383 29.667 6.69872 29.667H5.02404V7.66699H6.69872C10.383 7.66699 13.3974 8.66699 15.742 10.3337C18.0865 12.3337 19.0913 15.0003 19.0913 18.667Z" fill="#283246"/>
<path d="M56.2692 34.6667H50.5753L41.1971 12L31.484 34.6667H26.125L41.1971 0L56.2692 34.6667Z" fill="#F68B1F"/>
<path d="M88.0882 2.66667V37L64.6427 12.6667V34.6667H59.6187V0L83.0642 24.6667V2.66667H88.0882Z" fill="#283246"/>
<path d="M114.213 24.9997C114.213 27.9997 113.208 30.333 111.199 32.333C109.189 34.333 106.844 35.333 103.83 35.333C101.151 35.333 98.806 34.6663 97.1313 32.9997C95.4566 31.333 94.1169 29.333 93.447 26.9997V26.333L98.4711 24.9997V25.9997C98.4711 27.333 99.1409 28.6663 100.146 29.333C101.151 30.333 102.155 30.6663 103.495 30.6663C104.835 30.6663 106.175 30.333 107.179 29.333C108.184 28.333 108.854 27.333 108.854 25.6663C108.854 24.333 108.519 23.333 107.514 22.333C106.844 21.6663 105.505 20.9997 103.83 20.333L101.82 19.6663C99.4759 18.6663 97.8012 17.6663 96.7964 16.6663C95.4566 15.333 94.4518 13.333 94.4518 10.9997C94.4518 8.33301 95.4566 6.33301 97.4663 4.66634C99.1409 2.99967 101.485 2.33301 103.83 2.33301C107.849 2.33301 110.529 3.99967 112.538 7.33301L112.873 7.99967L108.854 10.6663L108.519 9.99967C107.514 7.99967 105.84 6.99967 104.165 6.99967C102.825 6.99967 102.155 7.33301 101.151 7.99967C100.481 8.66634 99.8108 9.66634 99.8108 10.6663C99.8108 11.6663 100.146 12.333 101.151 12.9997C101.82 13.333 102.825 13.9997 104.165 14.6663L106.175 15.6663C108.519 16.6663 110.529 17.6663 111.534 18.9997C113.208 20.333 114.213 22.6663 114.213 24.9997Z" fill="#283246"/>
<path d="M143.352 2.66699V34.667H138.328V19.667H124.596V34.667H119.572V2.66699H124.596V15.0003H138.328V2.66699H143.352Z" fill="#283246"/>
<path d="M176.846 34.6667H171.487L162.109 12L152.396 34.6667H146.702L162.109 0L176.846 34.6667Z" fill="#283246"/>
<path d="M190.244 20.6663C192.253 20.333 193.593 19.333 194.933 17.9997C196.607 16.333 197.277 14.333 197.277 11.6663C197.277 7.33301 195.268 2.33301 185.22 2.33301H179.861V33.9997H184.885V21.9997L193.593 34.6663H199.957L190.244 20.6663ZM185.22 7.66634C187.899 7.66634 189.574 7.99967 190.244 8.33301C191.583 8.99967 192.253 10.333 192.253 12.333C192.253 14.333 191.583 16.9997 185.555 16.9997H185.22V7.66634Z" fill="#283246"/>
<path d="M209 2.66699H203.976V34.3337H209V2.66699Z" fill="#283246"/>
</svg>
