<svg width="41" height="14" viewBox="0 0 41 14" fill="none" xmlns="http://www.w3.org/2000/svg">
<path d="M9.61728 0H41V14H9.61728L0 7.5L9.61728 0Z" fill="#F68B1F"/>
<path d="M10.3911 7.56H13.2211V8.81H10.3911V7.56ZM20.2205 6.85C20.8339 6.95 21.3039 7.18 21.6305 7.54C21.9572 7.89333 22.1205 8.33333 22.1205 8.86C22.1205 9.26667 22.0139 9.64333 21.8005 9.99C21.5872 10.33 21.2605 10.6033 20.8205 10.81C20.3872 11.0167 19.8539 11.12 19.2205 11.12C18.7272 11.12 18.2405 11.0567 17.7605 10.93C17.2872 10.7967 16.8839 10.61 16.5505 10.37L17.1805 9.13C17.4472 9.33 17.7539 9.48667 18.1005 9.6C18.4539 9.70667 18.8139 9.76 19.1805 9.76C19.5872 9.76 19.9072 9.68333 20.1405 9.53C20.3739 9.37 20.4905 9.14667 20.4905 8.86C20.4905 8.28667 20.0539 8 19.1805 8H18.4405V6.93L19.8805 5.3H16.9005V4H21.8005V5.05L20.2205 6.85ZM25.1709 6.63C26.1575 6.63 26.8842 6.82667 27.3509 7.22C27.8242 7.61333 28.0609 8.14 28.0609 8.8C28.0609 9.22667 27.9542 9.61667 27.7409 9.97C27.5275 10.3167 27.2009 10.5967 26.7609 10.81C26.3275 11.0167 25.7909 11.12 25.1509 11.12C24.6575 11.12 24.1709 11.0567 23.6909 10.93C23.2175 10.7967 22.8142 10.61 22.4809 10.37L23.1209 9.13C23.3875 9.33 23.6942 9.48667 24.0409 9.6C24.3875 9.70667 24.7442 9.76 25.1109 9.76C25.5175 9.76 25.8375 9.68 26.0709 9.52C26.3042 9.36 26.4209 9.13667 26.4209 8.85C26.4209 8.55 26.2975 8.32333 26.0509 8.17C25.8109 8.01667 25.3909 7.94 24.7909 7.94H23.0009L23.3609 4H27.6309V5.3H24.7109L24.6009 6.63H25.1709ZM30.2405 7.78C29.7271 7.78 29.3071 7.60667 28.9805 7.26C28.6605 6.90667 28.5005 6.43667 28.5005 5.85C28.5005 5.26333 28.6605 4.79667 28.9805 4.45C29.3071 4.09667 29.7271 3.92 30.2405 3.92C30.7538 3.92 31.1705 4.09667 31.4905 4.45C31.8105 4.79667 31.9705 5.26333 31.9705 5.85C31.9705 6.43667 31.8105 6.90667 31.4905 7.26C31.1705 7.60667 30.7538 7.78 30.2405 7.78ZM34.4105 4H35.6005L30.8205 11H29.6305L34.4105 4ZM30.2405 6.96C30.4671 6.96 30.6438 6.86667 30.7705 6.68C30.9038 6.49333 30.9705 6.21667 30.9705 5.85C30.9705 5.48333 30.9038 5.20667 30.7705 5.02C30.6438 4.83333 30.4671 4.74 30.2405 4.74C30.0205 4.74 29.8438 4.83667 29.7105 5.03C29.5771 5.21667 29.5105 5.49 29.5105 5.85C29.5105 6.21 29.5771 6.48667 29.7105 6.68C29.8438 6.86667 30.0205 6.96 30.2405 6.96ZM34.9905 11.08C34.6571 11.08 34.3571 11.0033 34.0905 10.85C33.8305 10.69 33.6271 10.4633 33.4805 10.17C33.3338 9.87667 33.2605 9.53667 33.2605 9.15C33.2605 8.76333 33.3338 8.42333 33.4805 8.13C33.6271 7.83667 33.8305 7.61333 34.0905 7.46C34.3571 7.3 34.6571 7.22 34.9905 7.22C35.5038 7.22 35.9205 7.39667 36.2405 7.75C36.5671 8.09667 36.7305 8.56333 36.7305 9.15C36.7305 9.73667 36.5671 10.2067 36.2405 10.56C35.9205 10.9067 35.5038 11.08 34.9905 11.08ZM34.9905 10.26C35.2171 10.26 35.3938 10.1667 35.5205 9.98C35.6538 9.78667 35.7205 9.51 35.7205 9.15C35.7205 8.79 35.6538 8.51667 35.5205 8.33C35.3938 8.13667 35.2171 8.04 34.9905 8.04C34.7705 8.04 34.5938 8.13333 34.4605 8.32C34.3271 8.50667 34.2605 8.78333 34.2605 9.15C34.2605 9.51667 34.3271 9.79333 34.4605 9.98C34.5938 10.1667 34.7705 10.26 34.9905 10.26Z" fill="white"/>
</svg>
