<svg width="17" height="17" viewBox="0 0 17 17" fill="none" xmlns="http://www.w3.org/2000/svg">
<path d="M8.55268 1.96105C6.52711 0.46744 3.60128 0.733424 1.678 2.57486C-0.388492 4.55951 -0.408952 7.71041 0.88005 9.51092C2.27135 11.4342 5.31995 12.314 7.89795 10.6976C7.91841 10.7181 7.93887 10.759 7.95933 10.7795C8.22532 11.0454 8.61406 11.1682 8.96189 11.1068C9.04373 11.25 9.06419 11.4342 9.06419 11.6388C9.04373 12.1503 9.20742 12.6004 9.55524 12.9483C10.7829 14.1759 12.0105 15.4035 13.2586 16.6107C13.5041 16.8357 13.8928 16.9789 14.302 16.9994H14.568C15.0795 16.938 15.591 16.672 15.8366 16.1196C16.1435 15.4035 16.0207 14.7079 15.5092 14.1759C14.343 12.9892 13.1563 11.8229 11.99 10.6362C11.5808 10.227 11.0898 10.0224 10.4964 10.0838C10.3737 10.1043 10.21 10.1043 10.1281 10.0429C10.1077 10.0224 10.1077 10.0224 10.0872 10.002C10.1281 9.63368 10.0258 9.26539 9.75984 8.99941C9.73938 8.97895 9.69846 8.95849 9.678 8.91757C11.233 6.40094 10.4964 3.39327 8.55268 1.96105ZM5.1358 10.002C3.06931 10.0633 1.45294 8.44698 1.53478 6.38048C1.59616 4.31399 3.29437 2.59532 5.31995 2.53394C7.4069 2.47255 9.00281 4.06846 8.96189 6.15542C9.04373 7.91501 7.34552 9.94059 5.1358 10.002Z" fill="#474747"/>
</svg>
