<svg width="31" height="31" viewBox="0 0 31 31" fill="none" xmlns="http://www.w3.org/2000/svg">
<path d="M30.1877 7.36593C30.1877 6.86228 30.1562 6.35862 30.0933 5.85497C29.747 3.24227 28.3305 1.448 25.8752 0.472175C24.7105 0.0314783 23.4514 0 22.2237 0C17.4705 0 12.7487 0 7.9955 0C7.24002 0 6.48454 0.0314783 5.72906 0.125913C3.24227 0.472175 1.47948 1.82574 0.535131 4.15514C0.0629557 5.31984 0 6.54749 0 7.77515C0 12.6228 0 17.502 0 22.3496C0 23.1681 0.0314779 23.9865 0.18887 24.7734C0.629566 27.1973 2.04609 28.8342 4.34401 29.7155C5.35132 30.0933 6.45306 30.1877 7.52332 30.1877C10.0416 30.1877 12.5599 30.1877 15.0781 30.1877C17.5964 30.1877 20.1147 30.1877 22.6329 30.1877C23.3569 30.1877 24.0494 30.1248 24.742 29.9988C27.1658 29.5582 28.8027 28.1731 29.7155 25.9067C30.1562 24.7734 30.1877 23.5773 30.1877 22.3496C30.2192 17.4075 30.2192 12.371 30.1877 7.36593ZM26.19 8.84541C25.6863 9.34906 25.1827 9.78976 24.6475 10.2619C24.4901 10.3878 24.4272 10.5138 24.4272 10.7026C24.4587 12.6858 24.1754 14.6374 23.3884 16.4946C23.2625 16.7465 23.1681 17.0298 23.0107 17.2816C22.1607 18.5407 21.4367 19.8628 20.3665 20.9646C19.1703 22.1922 17.7538 23.0107 16.1484 23.6402C14.7004 24.2383 13.1894 24.3013 11.6785 24.3642C10.6712 24.3957 9.66385 24.4272 8.65654 24.3642C7.24002 24.2698 5.91793 23.7032 4.65879 23.0736C4.37549 22.9162 4.09218 22.7588 3.80888 22.57C6.26419 22.6329 8.59359 22.2237 10.5767 20.5239C8.53063 20.2406 7.1141 19.2018 6.29566 17.4075C6.95671 17.376 7.58628 17.3446 8.21585 17.3131C8.21585 17.2816 8.21585 17.2501 8.24733 17.2186C6.1068 16.3687 4.72175 14.9522 4.65879 12.4969C5.31984 12.7487 5.91793 13.0635 6.64193 13.0006C4.72175 11.2378 4.02923 9.22315 5.16245 6.76784C7.90106 9.41202 10.8915 11.5211 14.8893 11.5525C14.8893 11.2063 14.8893 10.923 14.8893 10.6397C14.9837 8.78245 15.8966 7.49184 17.4705 6.57897C18.4148 6.01236 19.4536 5.94941 20.4924 6.04384C21.4682 6.1068 22.3181 6.45306 22.9477 7.24002C23.0107 7.30297 23.1366 7.33445 23.231 7.30297C24.2068 7.14558 25.1512 6.98819 25.9696 6.3901C25.7493 7.46037 24.9308 8.05845 24.1439 8.84541C24.4587 8.78246 24.7105 8.78246 24.9623 8.7195C25.2141 8.65654 25.466 8.62506 25.7178 8.53063C25.9696 8.43619 26.2215 8.34176 26.5362 8.2788C26.4733 8.40472 26.3788 8.65654 26.19 8.84541Z" fill="white"/>
<path d="M26.5677 8.18435C26.4418 8.4047 26.3473 8.65653 26.1899 8.8454C25.6863 9.34905 25.1826 9.78975 24.6475 10.2619C24.4901 10.3878 24.4271 10.5137 24.4271 10.7026C24.4586 12.6858 24.1753 14.6374 23.3884 16.4946C23.2624 16.7465 23.168 17.0298 23.0106 17.2816C22.1607 18.5407 21.4367 19.8628 20.3664 20.9646C19.1703 22.1922 17.7537 23.0106 16.1483 23.6402C14.7003 24.2383 13.1894 24.3013 11.6784 24.3642C10.6711 24.3957 9.66381 24.4272 8.6565 24.3642C7.23997 24.2698 5.91789 23.7032 4.65875 23.0736C4.37545 22.9162 4.09214 22.7588 3.80884 22.57C6.26415 22.6329 8.59354 22.2237 10.5767 20.5239C8.53059 20.2406 7.11406 19.2018 6.29562 17.4075C6.95667 17.376 7.58624 17.3445 8.21581 17.3131C8.21581 17.2816 8.21581 17.2501 8.24729 17.2186C6.10676 16.3687 4.72171 14.9522 4.65875 12.4969C5.3198 12.7487 5.91789 13.0635 6.64189 13.0005C4.72171 11.2378 4.02919 9.22314 5.16241 6.76783C7.90102 9.41201 10.8915 11.5211 14.8892 11.5525C14.8892 11.2063 14.8892 10.923 14.8892 10.6397C14.9836 8.78244 15.8965 7.49183 17.4704 6.57896C18.4148 6.01235 19.4536 5.94939 20.4924 6.04383C21.4682 6.10678 22.3181 6.45304 22.9477 7.24C23.0106 7.30296 23.1365 7.33444 23.231 7.30296C24.2068 7.14557 25.1511 6.98818 25.9696 6.39009C25.7492 7.46035 24.9308 8.05844 24.1438 8.8454C24.4586 8.78244 24.7105 8.78244 24.9623 8.71948C25.2141 8.65653 25.4659 8.62505 25.7178 8.53061C26.0325 8.34174 26.2844 8.24731 26.5677 8.18435Z" fill="#283246"/>
</svg>
