<svg width="31" height="31" viewBox="0 0 31 31" fill="none" xmlns="http://www.w3.org/2000/svg">
<path d="M30.2192 5.00506V25.0253C30.2192 27.7954 27.9528 30.0303 25.1827 30.0303H5.03653C2.26644 30.0303 0 27.7954 0 25.0253V5.00506C0 2.23496 2.26644 0 5.03653 0H25.1827C27.9528 0 30.2192 2.23496 30.2192 5.00506Z" fill="white"/>
<path d="M6.0752 16.4948C6.0752 15.519 6.0752 14.5431 6.0752 13.5988C6.0752 13.5044 6.10668 13.4099 6.10668 13.3155C6.13815 12.5285 6.20111 11.7416 6.3585 10.9546C6.54737 10.0417 7.01954 9.41217 7.93242 9.12887C8.34163 9.00295 8.81381 8.97147 9.25451 8.94C10.5766 8.87704 11.9302 8.81408 13.2523 8.7826C16.0223 8.75113 18.7924 8.71965 21.5625 9.00295C22.6013 9.09739 23.3883 9.664 23.6716 10.6713C23.8919 11.3953 23.9549 12.1508 23.9864 12.9063C24.0178 13.9451 24.0178 14.9524 24.0178 15.9911C24.0178 17.0299 23.9549 18.0687 23.7345 19.076C23.5142 20.1463 22.7902 20.8703 21.7199 20.9962C20.5867 21.1221 19.4535 21.1851 18.3203 21.2165C15.0465 21.248 11.8042 21.3425 8.5305 21.0277C7.46024 20.9332 6.67329 20.3666 6.42146 19.3278C6.26407 18.7612 6.23259 18.1631 6.13816 17.5651C6.10668 17.2188 6.10667 16.8411 6.0752 16.4948ZM18.4462 14.8264C16.526 13.8191 14.6373 12.8433 12.7486 11.8675C12.7486 13.8506 12.7486 15.8023 12.7486 17.7854C14.6373 16.8096 16.526 15.8338 18.4462 14.8264Z" fill="#283246"/>
</svg>
