<svg width="30" height="30" viewBox="0 0 30 30" fill="none" xmlns="http://www.w3.org/2000/svg">
<path d="M30 4.91952V24.5976C30 27.3204 27.75 29.5171 25 29.5171H5C2.25 29.5171 0 27.3204 0 24.5976V4.91952C0 2.19677 2.25 0 5 0H25C27.7812 0 30 2.19677 30 4.91952Z" fill="white"/>
<path d="M21.7812 4.82617H8.34375C6.5 4.82617 4.96875 6.31131 4.96875 8.13679V21.3483C4.96875 23.1738 6.46875 24.659 8.34375 24.659H21.7812C23.4062 24.659 24.7812 23.5142 25.0625 21.9981C25.0625 17.1714 25.0625 12.3137 25.0625 7.48704C24.75 5.97097 23.4062 4.82617 21.7812 4.82617ZM23.2188 22.8644H18.5312V16.8001H20.8437C20.9687 15.8719 21.0625 15.0056 21.1875 14.0773H18.4687C18.4687 13.3348 18.4375 12.6541 18.4687 11.9734C18.5312 11.3237 18.875 11.0142 19.5938 10.9833C20.125 10.9524 20.6562 10.9833 21.25 10.9833V8.50808C20.0312 8.53902 18.8125 8.26055 17.625 8.72466C16.3438 9.21971 15.625 10.3336 15.625 11.9425C15.625 12.6231 15.625 13.3038 15.625 14.0773H13.2812V16.7692H15.5938C15.625 17.0476 15.625 17.2333 15.625 17.4189C15.625 19.2444 15.625 21.0699 15.625 22.9263H6.78125V6.62071H23.2188V22.8644Z" fill="#283246"/>
</svg>
