<svg width="31" height="31" viewBox="0 0 31 31" fill="none" xmlns="http://www.w3.org/2000/svg">
<path d="M25.1827 0H5.03653C2.26644 0 0 2.23496 0 5.00506V25.0253C0 27.7954 2.26644 30.0303 5.03653 30.0303H25.1827C27.9528 30.0303 30.2192 27.7954 30.2192 25.0253V5.00506C30.2192 2.23496 27.9842 0 25.1827 0ZM16.5891 20.0517C15.204 19.9573 14.6374 19.2647 13.5672 18.6352C12.9691 21.7201 12.2451 24.679 10.1045 26.2215C9.4435 21.5627 11.0804 18.0371 11.8359 14.3226C10.5452 12.1506 11.9932 7.80663 14.7004 8.87689C18.0686 10.199 11.8044 16.9353 15.991 17.7538C20.3665 18.6352 22.1607 10.199 19.4536 7.42889C15.5188 3.4941 8.02698 7.36593 8.93985 13.032C9.1602 14.4171 10.6082 14.8263 9.50646 16.7465C6.98819 16.1799 6.23271 14.2282 6.32715 11.584C6.48454 7.2715 10.2305 4.28105 13.9764 3.84036C18.7296 3.30523 23.1681 5.57167 23.7661 10.0101C24.4901 15.0466 21.6571 20.4609 16.5891 20.0517Z" fill="white"/>
<path d="M16.589 20.0513C15.2039 19.9568 14.6373 19.2643 13.5671 18.6347C12.969 21.7196 12.245 24.6786 10.1045 26.221C9.44341 21.5622 11.0803 18.0366 11.8358 14.3222C10.5452 12.1502 11.9932 7.80619 14.7003 8.87645C18.0685 10.1985 11.8043 16.9349 15.9909 17.7533C20.3664 18.6347 22.1607 10.1985 19.4535 7.42845C15.5187 3.49365 8.02689 7.36549 8.93976 13.0316C9.16011 14.4166 10.6081 14.8259 9.50637 16.746C6.9881 16.1794 6.23262 14.2278 6.32706 11.5836C6.48445 7.27105 10.2304 4.28061 13.9763 3.83991C18.7295 3.30478 23.168 5.57122 23.7661 10.0097C24.4901 15.0462 21.657 20.4605 16.589 20.0513Z" fill="#283246"/>
</svg>
