<svg width="31" height="31" viewBox="0 0 31 31" fill="none" xmlns="http://www.w3.org/2000/svg">
<path d="M30.8886 5.00506V25.0253C30.8886 27.7954 28.6222 30.0303 25.8521 30.0303H5.70597C2.93587 30.0303 0.669434 27.7954 0.669434 25.0253V5.00506C0.669434 2.23496 2.93587 0 5.70597 0H25.8521C28.6222 0 30.8886 2.23496 30.8886 5.00506Z" fill="white"/>
<path d="M18.1399 20.0835C16.8493 21.8778 15.055 22.8536 12.9145 23.1055C10.2388 23.4517 7.87793 22.7592 5.95775 20.839C3.59688 18.4782 2.8414 15.6136 3.81723 12.4343C4.82453 9.255 7.05949 7.33482 10.3647 6.76821C12.8515 6.32751 15.0865 6.95708 17.0066 8.62543C17.0696 8.65691 17.1011 8.71987 17.1326 8.75134V8.78282C16.3771 9.5383 15.5901 10.3253 14.8346 11.0807C14.8346 11.0807 14.8032 11.0493 14.7717 11.0493C12.883 9.31795 9.57776 9.47535 7.78349 11.8362C6.6188 13.3472 6.36697 15.0785 7.12245 16.8413C7.84645 18.6041 9.2315 19.7058 11.1202 19.9262C12.82 20.115 14.3625 19.6743 15.4642 18.2578C15.842 17.7856 16.0623 17.2505 16.1567 16.6209H11.6868V13.4101H19.462C19.4934 13.6305 19.5564 13.8823 19.5564 14.1341C19.7453 16.2747 19.399 18.2893 18.1399 20.0835Z" fill="#283246"/>
<path d="M28.1815 13.8825V15.9601H25.6317V18.5413H23.5541V15.9601H21.0044V13.914H23.5541V11.3643H25.6317V13.8825H28.1815Z" fill="#283246"/>
</svg>
