<svg width="30" height="30" viewBox="0 0 30 30" fill="none" xmlns="http://www.w3.org/2000/svg">
<path d="M30 5V25C30 27.7673 27.75 30 25 30H5C2.25 30 0 27.7673 0 25V5C0 2.2327 2.25 0 5 0H25C27.75 0 30 2.2327 30 5Z" fill="white"/>
<path d="M25.4687 8.93103C24.8125 6.57254 23.3125 5.126 20.9375 4.59141C20.7187 4.52852 20.5 4.52852 20.3125 4.49707H10.125C9.8125 4.55996 9.5 4.59141 9.1875 4.68575C6.84375 5.34613 5.40625 6.85556 4.90625 9.2455C4.8125 9.62286 4.8125 10.0317 4.8125 10.4405C4.8125 13.4908 4.8125 16.5725 4.8125 19.6229C4.8125 21.6669 5.65625 23.3021 7.3125 24.4971C8.28125 25.1889 9.40625 25.5348 10.5937 25.5348C13.6875 25.5348 16.7812 25.5662 19.9062 25.5348C22.375 25.5034 24.1875 24.2769 25.2187 22.0128C25.4375 21.5096 25.5312 20.9122 25.6562 20.3776C25.6875 20.3147 25.6875 20.2203 25.6875 20.1574V9.87443C25.5937 9.55996 25.5625 9.2455 25.4687 8.93103ZM23.7812 19.5914C23.7812 21.4153 22.7812 22.8619 21.125 23.4279C20.6875 23.5851 20.2187 23.648 19.7812 23.648C16.75 23.648 13.6875 23.648 10.6562 23.648C8.875 23.648 7.4375 22.6417 6.84375 20.9751C6.6875 20.5034 6.625 20.0317 6.625 19.56C6.625 18.0505 6.625 16.5096 6.625 15.0002C6.625 13.4593 6.625 11.9499 6.625 10.409C6.625 9.52852 6.84375 8.71091 7.34375 7.98764C8.15625 6.88701 9.25 6.32097 10.625 6.32097C13.6875 6.32097 16.7187 6.32097 19.7812 6.32097C21.5625 6.32097 23.0312 7.32726 23.5625 8.99393C23.7187 9.43418 23.7812 9.90588 23.7812 10.3461C23.8125 13.4593 23.7812 16.5411 23.7812 19.5914Z" fill="#283246"/>
<path d="M15.2188 9.59082C12.2812 9.59082 9.84375 12.0437 9.84375 14.9996C9.84375 17.987 12.2812 20.4084 15.2188 20.4084C18.1875 20.4084 20.5938 17.9556 20.5938 14.9682C20.5625 12.0122 18.1563 9.59082 15.2188 9.59082ZM15.1875 18.5531C13.25 18.5531 11.6563 16.9493 11.6563 14.9996C11.6563 13.0499 13.25 11.4462 15.1875 11.4462C17.125 11.4462 18.7188 13.0499 18.7188 14.9996C18.7188 16.9493 17.125 18.5531 15.1875 18.5531Z" fill="#283246"/>
<path d="M22.1562 9.37095C22.1562 10.1257 21.5312 10.7232 20.8125 10.7232C20.0625 10.7232 19.4375 10.0942 19.4375 9.33951C19.4375 8.58479 20.0625 7.9873 20.7812 7.9873C21.5625 8.01875 22.1875 8.61624 22.1562 9.37095Z" fill="#283246"/>
</svg>
