<svg width="19" height="20" viewBox="0 0 19 20" fill="none" xmlns="http://www.w3.org/2000/svg">
<path d="M2.15661 17.6227C2.46021 14.7735 4.58543 12.2979 7.38793 11.4105C7.66818 11.3171 7.97178 11.1302 8.15861 10.8733C8.48557 10.4063 8.25203 9.89246 7.66818 9.56551C6.19687 8.72476 5.42618 7.48699 5.47289 5.75879C5.54295 3.93717 6.80407 2.41915 8.57899 1.97542C10.3072 1.53169 12.1755 2.30238 13.0863 3.84375C14.2307 5.75879 13.6468 8.18761 11.7551 9.40203C11.6384 9.47209 11.4983 9.56551 11.3815 9.63557C11.0078 9.84576 10.821 10.1494 10.8677 10.5697C10.9144 10.9901 11.1946 11.2236 11.5683 11.3871C12.2689 11.6674 12.9929 11.9009 13.6001 12.3213C15.7721 13.7459 16.9164 15.7777 17.0332 18.3934C17.0332 18.6503 17.1266 18.9305 17.2434 19.1407C17.4769 19.5144 17.8739 19.5611 18.2709 19.4443C18.668 19.3275 18.9015 18.9539 18.9015 18.4868C18.8781 17.0155 18.5512 15.6142 17.8739 14.3297C16.9398 12.5548 15.5852 11.2003 13.7636 10.2428C15.1882 8.77147 15.7721 7.04326 15.4684 5.05816C15.2349 3.49344 14.4642 2.23232 13.2498 1.2748C10.891 -0.593532 7.45799 -0.383345 5.33276 1.74188C3.23089 3.84375 2.78717 7.51034 5.33276 10.2194C5.19264 10.3128 5.05252 10.3829 4.93574 10.453C1.99313 12.2279 0.405047 14.8435 0.218214 18.2766C0.171506 19.1173 0.521817 19.4677 1.36257 19.4677C4.88904 19.4677 8.41551 19.4677 11.942 19.4677C12.5492 19.4677 12.9462 19.1407 12.9929 18.6269C13.0396 18.0431 12.6192 17.6227 11.9653 17.6227C10.6341 17.6227 9.30296 17.6227 7.97178 17.6227C6.19687 17.6227 4.3986 17.6227 2.62369 17.6227C2.48356 17.6227 2.32008 17.6227 2.15661 17.6227Z" fill="#474747"/>
</svg>
